<?xml version="1.0" encoding="UTF-8" standalone="no"?>
<svg
   width="0.83959162in"
   height="0.73766685in"
   viewBox="0 0 251.87748 221.30006"
   version="1.1"
   id="svg13782"
   sodipodi:docname="auto-upgrade.svg"
   inkscape:version="1.2.2 (b0a8486, 2022-12-01)"
   xmlns:inkscape="http://www.inkscape.org/namespaces/inkscape"
   xmlns:sodipodi="http://sodipodi.sourceforge.net/DTD/sodipodi-0.dtd"
   xmlns="http://www.w3.org/2000/svg"
   xmlns:svg="http://www.w3.org/2000/svg">
  <defs
     id="defs13786">
    <marker
       style="overflow:visible"
       id="marker8566"
       refX="0"
       refY="0"
       orient="auto-start-reverse"
       inkscape:stockid="RoundedArrow"
       markerWidth="4.0001864"
       markerHeight="3.8670001"
       viewBox="0 0 6.1347524 5.9304951"
       inkscape:isstock="true"
       inkscape:collect="always"
       preserveAspectRatio="xMidYMid">
      <path
         transform="scale(0.7)"
         d="m -0.21114562,-4.1055728 6.42229122,3.21114561 a 1,1 90 0 1 0,1.78885438 L -0.21114562,4.1055728 A 1.236068,1.236068 31.717474 0 1 -2,3 v -6 a 1.236068,1.236068 148.28253 0 1 1.78885438,-1.1055728 z"
         style="fill:context-stroke;fill-rule:evenodd;stroke:none"
         id="path8564" />
    </marker>
    <marker
       style="overflow:visible"
       id="RoundedArrow"
       refX="0"
       refY="0"
       orient="auto-start-reverse"
       inkscape:stockid="RoundedArrow"
       markerWidth="4.0001864"
       markerHeight="3.8670001"
       viewBox="0 0 6.1347524 5.9304951"
       inkscape:isstock="true"
       inkscape:collect="always"
       preserveAspectRatio="xMidYMid"
       markerUnits="strokeWidth">
      <path
         transform="scale(0.7)"
         d="m -0.21114562,-4.1055728 6.42229122,3.21114561 a 1,1 90 0 1 0,1.78885438 L -0.21114562,4.1055728 A 1.236068,1.236068 31.717474 0 1 -2,3 v -6 a 1.236068,1.236068 148.28253 0 1 1.78885438,-1.1055728 z"
         style="fill:context-stroke;fill-rule:evenodd;stroke:none"
         id="path1367" />
    </marker>
  </defs>
  <sodipodi:namedview
     id="namedview13784"
     pagecolor="#ffffff"
     bordercolor="#666666"
     borderopacity="1.0"
     inkscape:showpageshadow="2"
     inkscape:pageopacity="0.0"
     inkscape:pagecheckerboard="0"
     inkscape:deskcolor="#d1d1d1"
     inkscape:document-units="in"
     showgrid="false"
     inkscape:zoom="4.8970587"
     inkscape:cx="103.42943"
     inkscape:cy="1.4294295"
     inkscape:current-layer="svg13782"
     showguides="false" />
  <path
     id="Body"
     fill="none"
     stroke="black"
     stroke-width="0.794008"
     d="m 230.42701,73.021639 c 5.03232,-0.116194 14.96792,-0.96776 18.58086,-4.774267 2.64518,-2.774214 2.06453,-8.374272 2.06453,-12.000117 -0.013,-11.458181 -1.03226,-14.361444 -11.61303,-20.24539 -13.97435,-7.754916 -26.65837,-11.548503 -42.58112,-13.084006 0,0 -30.96809,-2.348424 -30.96809,-2.348424 C 154.90358,17.279075 138.60663,1.0337244 115.58701,0.76277243 85.289886,0.4143685 65.3929,7.2402513 36.876437,14.762909 c 0,0 -26.748675,5.380703 -26.748675,5.380703 -2.8903588,1.806487 -4.3097158,5.935559 -5.7548958,9.006564 -2.8516501,8.61945 -6.477495,22.968007 0,30.890682 4.335507,5.987156 11.3807768,6.516189 18.3098698,7.819433 0.02584,-7.380722 0.232258,-14.32275 4.709734,-20.60668 9.767855,-13.767895 29.651948,-13.935637 39.355287,0 5.664574,8.154933 3.871007,15.484042 3.677442,24.477703 0,0 28.387419,0 28.387419,0 0,0 54.194162,0 54.194162,0 0,0 29.67776,1.290325 29.67776,1.290325 0.0258,-7.690417 0.87742,-19.535711 5.71619,-25.755125 10.95496,-14.116299 31.29067,-13.058216 40.27143,2.529069 4.37423,7.612964 3.22584,15.032429 1.75485,23.226056 z M 66.554192,12.375792 c 22.09057,-6.4000752 29.187437,-6.4903979 51.613478,-6.4516719 3.44522,0 6.96782,-0.1290325 10.32272,0.8129046 6.37425,1.8193741 24.68413,12.6969253 29.67774,17.0711583 -23.08414,0.180645 -45.27792,2.658085 -68.387866,0 C 81.22533,22.569455 69.573568,21.704937 66.554192,12.375792 Z M 214.94297,40.311599 c -3.57423,-0.735502 -5.32911,-0.98068 -9.03237,-0.787115 -20.49055,1.070986 -27.50998,27.832564 -11.22592,39.987553 4.54197,3.39357 9.58721,4.064539 15.09694,3.780684 22.32283,-1.161292 29.93583,-33.045525 5.16135,-42.981122 z m -161.292155,0 C 50.076583,39.576097 48.321725,39.330919 44.61846,39.524484 17.134274,40.956761 17.185904,84.905643 48.489467,83.292721 70.967151,82.118526 78.425293,50.195567 53.650815,40.311599 Z M 212.36229,47.76974 c 18.16797,7.329126 8.86461,32.593912 -9.03236,26.993853 -9.89688,-3.096811 -13.20015,-15.703398 -5.90973,-23.174459 4.20647,-4.309717 9.36782,-4.619395 14.94209,-3.819394 z M 49.779808,47.718225 C 69.328423,54.079591 60.721875,78.608907 43.32812,75.241111 32.450607,73.137866 28.657004,59.434503 36.128049,51.524732 c 4.051662,-4.296847 8.20654,-4.477476 13.651759,-3.806507 z"
     style="fill:#0082ff;fill-opacity:1;stroke:#000000;stroke-width:1.5;stroke-dasharray:none;stroke-opacity:1"
     inkscape:label="Car 1" />
  <path
     id="path7768"
     fill="none"
     stroke="black"
     stroke-width="0.794008"
     d="m 230.42701,210.22135 c 5.03232,-0.1162 14.96791,-0.96776 18.58085,-4.77427 2.64519,-2.77421 2.06454,-8.37427 2.06454,-12.00012 -0.013,-11.45818 -1.03226,-14.36144 -11.61304,-20.24539 -13.97434,-7.75491 -26.65836,-11.5485 -42.58112,-13.084 0,0 -30.96808,-2.34843 -30.96808,-2.34843 -11.00659,-3.29036 -27.30353,-19.53571 -50.32315,-19.80666 -30.297122,-0.3484 -50.194112,6.47748 -78.710582,14.00014 0,0 -26.74867,5.3807 -26.74867,5.3807 -2.8903598,1.80649 -4.3097196,5.93556 -5.7548996,9.00656 -2.85165,8.61945 -6.47749,22.96801 0,30.89069 4.3355098,5.98715 11.3807796,6.51619 18.3098696,7.81943 0.0258,-7.38072 0.23226,-14.32275 4.70974,-20.60668 9.76785,-13.7679 29.65195,-13.93564 39.35529,0 5.66457,8.15493 3.87101,15.48404 3.67744,24.4777 0,0 28.38742,0 28.38742,0 0,0 54.194162,0 54.194162,0 0,0 29.67776,1.29033 29.67776,1.29033 0.0258,-7.69042 0.87742,-19.53571 5.71619,-25.75513 10.95495,-14.1163 31.29066,-13.05821 40.27142,2.52907 4.37424,7.61297 3.22585,15.03243 1.75486,23.22606 z M 66.554188,149.5755 c 22.09058,-6.40008 29.187443,-6.4904 51.613482,-6.45167 3.44522,0 6.96782,-0.12903 10.32271,0.8129 6.37426,1.81938 24.68414,12.69693 29.67775,17.07116 -23.08414,0.18065 -45.27792,2.65809 -68.387862,0 -8.55494,-1.23873 -20.2067,-2.10324 -23.22608,-11.43239 z m 148.388782,27.93581 c -3.57423,-0.7355 -5.32911,-0.98068 -9.03237,-0.78712 -20.49055,1.07099 -27.50999,27.83257 -11.22593,39.98756 4.54198,3.39357 9.58721,4.06453 15.09695,3.78068 22.32283,-1.16129 29.93583,-33.04553 5.16135,-42.98112 z m -161.292152,0 c -3.57423,-0.7355 -5.32909,-0.98068 -9.03236,-0.78712 -27.48419,1.43228 -27.43256,45.38116 3.87101,43.76824 22.47768,-1.1742 29.93583,-33.09715 5.16135,-42.98112 z m 158.711472,7.45814 c 18.16796,7.32912 8.86461,32.59391 -9.03236,26.99385 -9.89689,-3.09681 -13.20015,-15.7034 -5.90974,-23.17446 4.20648,-4.30971 9.36783,-4.61939 14.9421,-3.81939 z m -162.582482,-0.0515 c 19.54862,6.36136 10.94207,30.89068 -6.45169,27.52288 -10.87752,-2.10324 -14.67112,-15.8066 -7.20007,-23.71637 4.05166,-4.29685 8.20654,-4.47748 13.65176,-3.80651 z"
     style="fill:#ff0000;fill-opacity:1;stroke:#000000;stroke-width:1.5;stroke-dasharray:none;stroke-opacity:1"
     inkscape:label="Car 2" />
  <path
     style="fill:none;stroke:#000000;stroke-width:4.49497;stroke-linecap:butt;stroke-linejoin:miter;stroke-dasharray:none;stroke-opacity:1;marker-start:url(#RoundedArrow);marker-end:url(#marker8566)"
     d="m 125.93875,92.15847 v 24.35424"
     id="path8536"
     inkscape:label="Arrow" />
</svg>
