<svg width="2.0167in" height="1.3885in" version="1.1" viewBox="0 0 605 416.56" xmlns="http://www.w3.org/2000/svg">
	<rect x="1.5" y="1.5" width="602" height="413.56" fill="#43c1c0" stroke="#43c1c0" stroke-linecap="round" stroke-linejoin="round" stroke-miterlimit="3.6" stroke-width="3" style="paint-order:markers fill stroke"/>
	<g transform="translate(-164.99 -50.585)">
		<g>
			<path id="Shadow" d="m635 413 33 2.83c14.25 1.36 33.4 2.2 46 9.17-2.68 4.87-5.9 4.9-11 6.12l-25 4.13-11 0.92-15 1.83h-9l-24 2-21 1-20 1h-14l-15 1-69.74 0.78h-23.24s-15.02-0.78-15.02-0.78h-54l-18-1-32-1-20-1-23-2h-11l-32-3.84c-6.02-0.65-23.22-2.8-27.71-6.09-1.51-1.11-1.48-1.62-2.29-3.07 14.33-6.84 30.42-7.68 46-9.17l21-1.83c0.77 4.07 347-1 347-1z" fill="#2d7e7e" stroke="#2d7e7e"/>
			<path id="Computer" d="m461 150 7-1 2.55 15 8.45 47-8 1-3.27-21-6.73-41zm-113 228 286-2v53l-342 2s-58.36-345.18-58.36-345.36c0.18-0.19 42.36-10.6 42.36-10.6h10l10-1.04 52 304z" fill="#fff" stroke="#fff"/>
			<path id="Arm Shadow" d="m564.5 383.12 38.5-1.12 0.12 8c-9.66 0.57-40 0.78-40 0.75 0 0 1.38-7.63 1.38-7.63zm-202.5 8.5s6.62-9.31 6.62-9.31 176.38 0.44 176.38 0.44l-0.12 6.75c-10.88 2.12-182.88 2.12-182.88 2.12z" fill="#2d7e7e" stroke="#2d7e7e"/>
			<path id="Compute Screen" d="m255 96 38-12s44.99 282.26 44.21 284.82c-0.85 2.82-25.66 28.09-32.21 31.18l-50-304z" fill="#00c8e9" stroke="#00c8e9"/>
		</g>
		<path id="Sleeve" d="m291 242s-10.98-66.75-9-69.26c1.36-1.73 178-28.74 178-28.74l11 71-180 27z" stroke="#000"/>
		<path id="Cuff" d="m461 150 6-1 12 62-8 1-10-62z" fill="#fff" stroke="#fff"/>
		<path id="Bug Shell" d="m567 200c13.22-16.79 43.29-13.48 56.83 1.09 12.94 13.93 14.31 33.92 4.42 49.91-3.54 5.72-8.31 10.17-14.25 13.36-8.12 4.35-13.08 4.74-22 4.64-5.89-0.07-6.57-0.78-12-2-8.38-2.62-15-10-15-10-6.76-7.89-10.19-14.51-10.91-25-0.2-2.92-0.23-10.4 1.91-12.62 0.14-0.42 11.25-19.38 11-19.38z" fill="#f00" stroke="#f00"/>
		<path id="Bug Black" d="m596 187c3.37-2.27 5.04-3.67 9-5.12 2.08-0.77 6.23-1.42 7.66-2.75 4.62-4.3 1.02-12.7 9.34-14.13l-4 16c3.54 1.03 6.01 2.16 8.91 4.53 1.67 1.36 4.19 4.51 6.18 4.89 4.2 0.79 5.19-4.74 12.91-3.42l-10.9 11.17-4.1 13.83c-3.65-9.88-13.27-18.13-23-21.88l-12-3.12zm-15.97 15.76c11.29 0.29 8.84 13.83 0 11.91-5.53-1.2-7.41-9.24 0-11.91zm24.97 15.24c0.49 4.24-2.73 8.4-4.73 12l-13.92 24c-1.39 2.45-8.47 12.25-8.69 12.25-0.17 0.24-9.02-6.14-11.66-8.25 0 0 39-40 39-40zm-36.77 7.76c8.6-1.56 9.16 7.47 3.67 9.02-4.77 1.35-9.71-4.72-3.67-9.02zm46 3.26c9.73-3.42 12.77 7.38 7.38 10.69-5.71 3.5-14.68-3.94-7.38-10.69zm-7.92 22.01c7.75-2.74 8.87 5.67 5.38 7.94-4.21 2.73-10.74-2.16-5.38-7.94z" stroke="#000"/>
		<path id="Hand" d="m469 155c10.52-3.05 21.08-6.02 31-10.75 3.92-1.86 7.99-3.39 10.91-6.77 6-6.94 6.21-17.39 9.89-25.48 1.65-3.61 4.38-6.25 7.2-8.96 6.3-6.06 19.42-18.05 28-19.04 1.47 11.27-4 10.56-10.82 17.29-5.75 5.67-13.36 16.28-12.18 24.71l26-16.91 8-5.18 9-3.37 10-4.53c3.32-1.52 19.63-9.72 18.42 0-0.71 5.77-8.08 8.2-12.42 10.47-10.25 5.37-24.2 12.1-31 21.52 12.54-2.52 17.4-2.14 30-2l10 0.96h17c2.26 0.04 6.62-0.21 8.43 1.21 4.86 3.84-1.54 9.54-5.44 10.44l-30.99 2.56c-9.32 0.92-12.63 2.74-21 5.24-5.89 1.76-15.93 4.01-18.52 10.31-1.29 3.13 1.05 4.96 3.57 6.22l14.81 5.77c5.21 3.07 8.48 18.66 7.14 24.29-4.54 0.76-7.03 3.71-10 7 5.04 2.11 9.06 7.35 5.15 12.57-1.49 1.99-4.82 3.38-7.15 5.43l-5 2c-10.32-0.15-12.99 6.42-19 6.46 0 0-19-4.32-19-4.32l-12-3.04-30-10.1-10-54zm67 24.29c-2.76 0.4-7.47 0.68-9.57 2.45-3.55 2.98-4.94 16.37-1.83 19.7 2.99 3.2 15.09 3.9 19.4 3.38 7.12-0.86 20.18-4.28 18-13.82-0.38-1.67-1.48-4.21-2.7-5.44-3.46-3.5-18.34-6.69-23.3-6.27z" fill="#ffad8d" stroke="#ffad8d"/>
	</g>
</svg>
