<svg width=".46751in" height=".5in" version="1.1" viewBox="0 0 140.25 150" xmlns="http://www.w3.org/2000/svg">
	<g transform="matrix(.19191 0 0 .19191 -54.581 -42.352)">
		<path id="Store" d="m651.41 221.27c-18.47-0.6075-28.412 2.3987-28.412 2.3987l-276.33 78.003-22.308 5.78c-40.72 7.1-38.538 45.819-38.538 45.819l-0.90942 648.55h729.64l0.2014-647.57c-0.5-37-36.255-45.746-36.255-45.746l-305.83-85.175c-8-1.25-15.102-1.8544-21.259-2.0569zm334.41 316.36 1.3428 440-674.67-0.67139 1.3306-438.67z" fill="#005c9b" stroke="#005c9b"/>
		<path id="DEALER" d="m455 376c15.397 0.54565 30.896-0.06 46.224 1.2486 14.2 0.79905 20.391 15.714 18.776 28.112-0.34795 20.836 0.74925 41.752-0.65359 62.529-0.54111 13.89-14.968 16.266-25.707 16.11h-38.639zm77 0h46v21c-6.3333-0.33333-12.667-0.66667-19-1v23h18v19c-6.3333 0.33333-12.034-0.59915-18.367-0.26582 0.33333 8.3333 0.0338 17.932 0.36709 26.266 7-0.33333 14-0.66667 21-1v21h-48zm65 0c13.08 0.42201 26.285-0.98255 39.26 0.99 4.4967 12.955 4.5694 26.946 7.1044 40.364 3.2119 22.215 6.4238 44.431 9.6356 66.646h-28c-0.33333-6.3333-0.66667-12.667-1-19l-10.933 0.26682-2.0669 18.733h-28c4.1267-36.069 9.2627-72.008 14-108zm62 0h28v87h17v21h-45zm53 0h46v21l-16.785 0.15823 0.53962 22.957 15.245-0.32802v18.213l-14.228 0.12427s0.034 18.857-0.0452 24.606c4.6284 0.0991 12.311 0.30872 17.273 0.27021v21h-48zm57 0c16.312 0.58129 32.908-1.5724 48.937 2.0841 15.39 5.6593 15.247 25.59 12.529 39.056 0.11975 10.748-23.554 9.4223-6.4369 13.835 11.036 7.4082 7.2646 22.358 7.9706 33.828v19.197h-26c-0.32966-14.644 0.74948-29.405-0.74-43.95-6.2952-9.8425-10.035-2.4672-8.26 5.1789v38.771h-28zm-286 90c11.096 1.0182 8.8448-11.423 9-18.655-0.29174-16.366 0.63914-32.828-0.57832-49.123-6.6681-9.5465-10.249-0.66497-8.4217 6.7939zm314-47c14.682 1.7041 10.8-30.302 0-23.426zm-178-17-6.041 43.292 10.426-0.0532z" fill="#fff" stroke="#fff"/>
		<g>
			<path id="Car" d="m559 639c-27.62-1.62-32.117 15.875-32.117 15.875l-33.63 83.74c-60.75 7.26-62.628 76.263-62.628 76.263l0.37842 30.499c-2.25 15.24 12.5 14.74 12.5 14.74l422.38-0.12207c19.37 0.62 16.119-15.997 16.119-15.997l-0.75073-24.5c-3.5-79.75-62-79.999-62-79.999l-34.253-82.001c-7.5-19.75-25-18.25-25-18.25l-82.251-0.25025zm3.2166 21.912c3.1972-0.14424 6.7936-0.0708 10.84 0.29297l180.72 0.18311s12.553-2.9114 22.913 18.549l23.639 54.541-286.5 0.0488 23.23-60.767s2.7786-11.838 25.159-12.848z"/>
			<path id="Right Tire" d="m805.42 876.25 61.12-0.13s1.13 34.13-29.75 36.76l-4.12 0.24s-24.88-3-27.75-33.62l0.5-3.25z" stroke="#000"/>
			<path id="Left Tire" d="m442.75 876.25 61.13-0.13s1.12 34.13-29.76 36.76l-4.12 0.24s-24.88-3-27.75-33.62l0.5-3.25z" stroke="#000"/>
		</g>
		<path d="m492.2 794.23 19.28 0.36s6.18 0.37 10.18 10.18l4.18 8.55s3.82 10.36-9.82 11.45h-52.73s-7.63-1.09-8-7.45c0 0-0.18-3.64 2.37-8.18l4.36-9.46s2.18-6.54 14.37-5.45zm333.14 0.34h18.75s4.63-0.87 11 10.25l3.25 8.25s2.12 6.13-1.88 9.13c0 0-2.5 2.24-5.5 2.5l-55.74-0.13s-6.26-1.87-7.76-7.87c0 0 2.88-8.63 4.63-11.76 0 0 4.37-12.74 16.5-10.74zm2.38 43.5 11.12-0.13s7.25 3.26 0 8.26l-27.75-0.26s-5.25-6.24 1.13-8.24zm-327.63-0.13s7.87 4 0.25 8.38l-26.25-0.38s-7.25-4.5-0.5-8.12l2 0.12z" fill="#fff" stroke="#000"/>
	</g>
</svg>
