<?xml version="1.0" encoding="UTF-8" standalone="no"?>
<svg
   width="0.45299506in"
   height="0.5in"
   viewBox="0 0 135.89825 149.9997"
   version="1.1"
   id="svg1001"
   sodipodi:docname="facepalm1.svg"
   inkscape:version="1.2.2 (b0a8486, 2022-12-01)"
   xmlns:inkscape="http://www.inkscape.org/namespaces/inkscape"
   xmlns:sodipodi="http://sodipodi.sourceforge.net/DTD/sodipodi-0.dtd"
   xmlns="http://www.w3.org/2000/svg"
   xmlns:svg="http://www.w3.org/2000/svg">
  <defs
     id="defs1005" />
  <sodipodi:namedview
     id="namedview1003"
     pagecolor="#ffffff"
     bordercolor="#666666"
     borderopacity="1.0"
     inkscape:showpageshadow="2"
     inkscape:pageopacity="0.0"
     inkscape:pagecheckerboard="0"
     inkscape:deskcolor="#d1d1d1"
     inkscape:document-units="in"
     showgrid="false"
     inkscape:zoom="3.4666115"
     inkscape:cx="73.991562"
     inkscape:cy="82.35708"
     inkscape:current-layer="svg1001" />
  <g
     id="g4503"
     transform="matrix(0.29241544,0,0,0.29241544,-7.1913819,0.19887625)">
    <path
       id="Head Shadow"
       fill="none"
       stroke="black"
       stroke-width="1"
       d="m 320,32 c 11.52543,-0.828469 28.66531,-5.272719 34.06389,8.418152 C 356.26658,58.208723 339.40241,69.346844 329.17,81.01 c 0.32069,9.172743 12.48015,9.498353 18.3271,14.656442 39.60428,21.521208 70.43853,58.506388 84.37355,101.361098 9.93089,24.93443 17.94755,50.8176 32.96448,73.36374 15.64144,24.56064 25.42398,53.45314 21.76614,82.84748 -1.79841,51.34792 -35.62572,96.77042 -79.56374,121.19583 -42.89889,24.96202 -92.69447,35.85179 -141.91273,37.42586 -8.52784,1.3203 -21.70967,-1.46999 -5.61536,-1.23638 59.50952,-5.84205 121.00426,-26.99625 162.37088,-71.91794 39.31081,-43.04521 49.28235,-113.02162 16.89884,-162.73244 -9.79885,-17.12911 -19.91199,-34.10506 -26.52213,-52.78807 -9.69351,-26.41894 -17.72682,-54.15612 -35.90757,-76.36267 -18.28874,-25.1284 -43.30452,-44.3976 -71.07953,-57.940547 C 289.0939,76.560914 323.21856,66.162684 324.17203,50.942344 328.09851,44.001574 323.32201,37.847789 320,32 Z"
       style="fill:#ffc500;fill-opacity:1;stroke:none" />
    <path
       id="Head"
       fill="none"
       stroke="black"
       stroke-width="1"
       d="m 281,52 c 12.43312,-7.328492 30.02216,-23.977225 42.8575,-13.8075 14.39419,22.830672 -41.55374,38.682762 -14.67446,52.435358 47.15573,22.263472 82.07346,65.741062 97.36958,115.202112 8.07511,23.03793 16.82285,45.85463 30.38314,66.34842 16.3713,25.26984 23.82788,55.46288 20.63196,85.38964 -5.03208,66.46169 -61.44502,116.32007 -121.54506,136.49963 -43.51228,14.8886 -90.66954,21.88766 -136.19555,12.96791 C 136.52979,496.81373 68.688855,466.46648 39.385,405.93625 22.065636,367.76218 18.74382,320.11406 40.59,283.14 54.817144,275.21003 65.966436,262.16251 76.7,250 86.921595,216.30329 94.76361,181.65562 105.3108,148.22949 132.87983,109.82883 175.52536,84.26282 221.46563,74.749531 231.55083,59.282727 229.24469,35.152726 243.74928,19.944922 255.03982,-5.4944379 295.77713,-4.7229666 286.82832,29.40832 286.15449,37.212362 283.46013,44.626193 281,52 Z"
       style="fill:#ffe531;fill-opacity:1;stroke:none" />
    <path
       id="Mouth Lower"
       fill="none"
       stroke="black"
       stroke-width="1"
       d="m 198.65,381.99 c 3.81,-1.58 8.26,-0.99 12.35,-0.99 0,0 21,0 21,0 0,0 77,0 77,0 2.28,0 5.77,-0.21 7.72,1.02 2.62,1.65 3.58,6.1 3.98,8.98 1.31,9.36 -3.57,18.92 -11.7,23.64 -20.5,11.91 -31.16,-10.49 -52,-9.54 -20.73,0.95 -26.36,17.42 -45,11.86 -17.48,-5.22 -20.98,-26.48 -13.35,-34.97 z"
       style="fill:#98253d;fill-opacity:1;stroke:none" />
    <path
       id="Mouth Upper"
       fill="none"
       stroke="black"
       stroke-width="1"
       d="m 200,380 c 3.95,-7.95 17.87,-14.04 26,-17.19 21.68,-8.4 44.49,-7.92 66,0.79 8.95,3.63 18.25,8.45 24,16.4 0,0 -116,0 -116,0 z"
       style="fill:#ffffff;fill-opacity:1;stroke:none" />
    <path
       id="Eye"
       fill="none"
       stroke="black"
       stroke-width="1"
       d="m 340,241.43 c 10.91,-1.35 25.37,1 35,6.37 10.38,5.79 5.87,13.6 0.96,14.73 -4.67,1.07 -9.14,-3.18 -15.96,-4.93 -8.07,-2.31 -19,-2.28 -27,0 -5.08,1.64 -12.3,6.68 -16.94,4.22 -5.04,-2.66 -4.86,-8.53 -0.83,-12.03 5.54,-4.83 17.57,-7.18 24.77,-8.36 z"
       style="fill:#000000;fill-opacity:1;stroke:none" />
    <path
       id="Eyebrow"
       fill="none"
       stroke="black"
       stroke-width="1"
       d="m 361,191.44 c 2.95,-0.37 6.17,-0.8 8.89,0.73 4.54,2.56 4.84,8 0.88,11.27 -2.81,2.33 -12.3,3.2 -16.77,4.58 -11.03,3.42 -18.6,6.93 -28,13.72 -4.02,2.91 -9.73,9.06 -14.98,7.93 -2.14,-0.46 -3.72,-1.75 -4.67,-3.73 -2.98,-6.24 4.4,-11.3 8.65,-14.46 14.34,-10.68 28.46,-16.8 46,-20.04 z"
       style="fill:#000000;fill-opacity:1;stroke:none" />
    <path
       id="Hand Shadow"
       fill="none"
       stroke="black"
       stroke-width="1"
       d="m 202,135 c 11.27945,8.48971 13.1426,26.34352 3.81301,37.00901 C 194.18289,185.87198 180.61056,197.9739 168,210.94 c -9.53966,10.32044 -14.08056,-5.05753 -4.4125,-9.63125 12.0134,-12.14991 24.57053,-23.81571 35.96294,-36.5449 C 206.31319,156.41226 206.36075,144.46119 202,135 Z m 57,25 c 11.42311,8.30142 11.23287,25.87505 2.31808,35.98607 -10.56917,12.71642 -23.31656,23.42273 -34.70664,35.40249 -7.54228,7.25072 -14.57069,15.12197 -22.55175,21.86206 -10.30372,3.98985 -6.61789,-9.7078 -0.53556,-12.6709 16.90256,-17.24823 34.30484,-34.02279 51.01993,-51.43881 C 261.99492,181.15001 262.15623,169.88246 259,160 Z m 9,55 c 17.6865,5.16004 23.26655,29.9599 11.07791,43.17061 -14.31072,15.67226 -29.7963,30.27011 -44.66948,45.42096 -13.08319,12.65698 -25.27592,26.28207 -39.09102,38.14098 -10.2316,8.62435 -24.1839,10.70359 -37.02639,8.22259 -11.2577,-1.09233 -15.38988,13.15698 -25.2137,16.54857 -13.36297,7.03784 -28.4494,-2.15319 -36.174651,-13.27642 3.804361,-1.10518 19.355081,1.66492 25.097331,-6.43729 7.03281,-6.49765 13.57435,-16.58224 24.73109,-12.89922 17.97025,1.86169 32.22033,-11.24177 43.67614,-23.29801 22.42751,-22.51996 45.03524,-44.87347 67.38504,-67.45939 C 265.09716,235.55962 269.67611,225.70447 268,215 Z"
       style="fill:#bfc4c4;fill-opacity:1;stroke:none" />
    <path
       id="Hand"
       fill="none"
       stroke="black"
       stroke-width="1"
       d="m 110,190 c 13.86141,-11.68645 25.88757,-25.39574 38.95814,-37.95814 10.38448,-9.41748 19.09195,-23.70409 34.53657,-23.9864 11.56708,-0.98482 22.19667,8.12782 20.52291,20.17286 0.86636,14.60708 -12.00977,23.27884 -20.94057,32.69463 -8.52726,8.94874 -18.05317,17.05111 -25.68555,26.76029 -2.4226,14.24959 14.60162,3.61332 17.97679,-2.91835 15.66403,-15.72858 31.15202,-31.68056 47.23112,-46.96098 9.83391,-8.38646 28.83952,-9.70448 35.4628,3.19326 6.34624,13.3335 -1.54266,27.78775 -11.77885,36.5684 -15.70343,15.91549 -31.7067,31.55763 -47.24211,47.61887 -8.86366,9.43439 7.33762,13.28755 10.95875,3.81556 10.82916,-10.45355 20.88012,-21.78355 32.42875,-31.43125 8.29425,-6.81904 29.67325,-7.93597 24.43645,7.94949 -2.15819,13.74442 -14.95003,21.51796 -23.6106,31.22716 -21.82217,21.65709 -43.31062,43.66776 -65.37882,65.06241 -10.27294,9.82706 -25.03566,12.52316 -38.7325,10.83297 -9.53771,3.27085 -14.35198,14.46649 -24.24963,17.7868 -9.85806,4.59582 -21.79963,1.36516 -28.506858,-7.07269 -14.90428,-14.89505 -30.106149,-29.55921 -44.389033,-45.03758 -9.916492,-11.04541 -5.872488,-28.46622 4.982805,-37.28142 9.630823,-6.35205 13.3527,-17.50108 10.330999,-28.44808 -1.19615,-16.33492 -1.288907,-32.74837 -2.516366,-49.09348 -7.41e-4,-12.47636 -3.937415,-26.94106 5.792755,-36.99002 11.666206,-13.29533 34.671884,-10.08832 43.757358,4.58506 6.26631,10.48031 4.02762,23.2433 5.65469,34.91063 0,1.33333 0,2.66667 0,4 z"
       style="fill:#ffffff;fill-opacity:1;stroke:none" />
    <path
       id="Outline"
       fill="none"
       stroke="#000000"
       stroke-width="1"
       d="m 220,73 c 1.83516,-30.098437 18.41147,-66.6819205 50.76375,-73.14625 24.95467,-5.3553093 22.7142,31.184585 27.19559,37.902424 18.61571,-8.002176 47.49012,-17.180953 60.94796,3.803299 11.30228,18.629634 -18.91794,37.765738 -17.41948,47.001829 44.81603,21.658058 79.88014,62.467128 94.51915,110.021858 9.90291,28.98343 22.79645,56.78395 39.37391,82.59672 30.77674,60.27354 8.45373,139.63381 -45.41476,179.20064 C 376.80289,500.19648 308.65471,514.56433 243.19727,512 173.70473,509.80984 99.059184,486.97774 54.461938,430.60704 23.745052,391.28116 16.11418,335.2936 34.39,289 28.524042,263.57679 62.252502,252.64268 55.16,228.23455 54.632535,205.98775 51.774153,183.66856 52.443591,161.39799 54.8734,134.93781 89.990087,124.0952 109,141 c 4.10693,-14.12148 38.83341,-40.25723 32.2975,-11.48625 -13.15906,6.93841 -29.04343,36.92338 -15.36429,39.55304 C 141.34825,154.96559 154.21824,137.58717 172,126.47 c 23.08889,-13.93004 46.31764,12.83328 52.7627,23.60976 C 246.7932,137.42262 278.40159,154.80349 276,181 c 3.88226,14.24064 -18.89389,27.08453 3.25687,30.70234 21.14258,13.91873 18.00239,46.63583 -1.45436,60.71347 C 251.59932,297.47117 227.17394,324.50247 200,348.45 c -12.62042,11.99035 -31.31184,3.8747 -44.25125,11.7775 -15.94551,20.33154 -47.60849,16.29889 -61.738118,-4.21555 C 77.675056,339.67334 61.336672,323.33752 45,307 c -12.457619,47.32862 3.247244,100.59712 40.754895,132.52833 60.821325,52.73223 147.569275,64.67349 224.919595,52.28335 63.49869,-9.59587 130.305,-43.39273 154.48355,-106.42489 14.50931,-37.02081 9.03733,-80.32878 -14.04789,-112.58907 C 427.18912,235.52357 422.5102,188.98048 394.49505,153.95771 376.81562,129.59154 351.72187,111.87139 324.94813,98.80625 298.70189,80.239768 365.26118,57.521602 334.65875,45.05875 312.376,37.594012 288.49114,77.802055 273.27563,58.906562 280.20102,45.233588 284.06072,1.41578 259.345,23.653906 233.15886,38.065241 247.01889,79.52796 221.13875,89.002969 199.5909,92.568027 180.57006,103.73073 161.19031,112.74266 135.72465,101.02003 179.68108,84.5025 191.79875,80.29875 200.9314,77.012555 210.29091,73.945575 220,73 Z m -34,66.39 c -17.40524,3.87945 -26.54608,21.38848 -39.59925,32.20925 C 135.51659,180.39668 128.16941,195.59697 114,198.67 98.376175,187.29161 116.65292,152.91245 89.094238,149.42057 68.532475,146.0003 66.171026,169.08442 68.690501,183.81002 c 1.363611,20.44737 2.272252,40.92438 3.290593,61.40264 -7.804479,19.33227 -36.639744,41.14877 -6.025622,58.74281 17.376896,16.98759 33.978052,34.83095 51.945778,51.16703 23.41702,10.50504 34.47028,-27.75234 59.7825,-14.8225 21.99938,-6.09241 34.31557,-27.55089 50.89323,-41.87698 15.62261,-16.44974 33.16529,-31.28063 47.21427,-49.06552 11.35248,-31.57237 -33.50268,-34.56973 -43.96947,-9.38072 -5.51687,10.42178 -34.09304,31.79702 -28.3235,7.10291 C 220.79747,227.7224 240.99719,210.9138 257.64,191 c 13.31096,-22.51762 -22.71741,-40.76026 -35.1175,-18.56875 -15.90399,15.55421 -31.10843,31.95361 -47.45189,46.94932 -23.39938,4.48346 -4.9961,-19.38125 4.70675,-26.15793 10.22048,-12.38571 30.78974,-22.64441 25.01155,-41.49842 C 202.08947,144.00151 193.9562,139.32657 186,139.39 Z m 172,53.05 c 21.32897,-4.55361 12.96706,22.68191 -5,17.86 -16.74981,-1.00291 -43.05496,37.48494 -48.4,10.7 12.20061,-16.62355 33.75772,-24.63408 53.4,-28.56 z m -24,49 c 13.29719,-4.64687 59.84635,4.14363 39,22.09 -19.65428,-12.47129 -42.42459,-0.9286 -61.20141,-2.74078 C 304.60701,247.42575 325.1735,243.26389 334,241.44 Z m -81,103.98 c 24.60158,-1.44901 51.1336,6.84682 68.61,24.58 15.40436,18.75313 2.22925,51.03965 -22.61,51.71 -22.5299,-2.01491 -44.72783,-23.28428 -65.90875,-2.27656 -28.86171,14.26714 -58.67763,-26.11858 -37.27754,-49.75541 C 210.22427,353.77605 232.34592,347.77456 253,345.42 Z M 291,368 c -20.75629,-7.63339 -45.07544,-10.55688 -65,1 21.67651,-0.10981 43.35607,0.4867 65,-1 z m -83.69,17.6 c -8.38664,24.17163 25.60901,21.92722 37.82428,9.92115 21.85673,-12.64472 41.04031,17.52035 60.99039,6.60364 16.56708,-16.41737 -7.07851,-19.00392 -19.7174,-17.12479 -26.36951,-0.0275 -52.73456,-0.12001 -79.09727,0.6 z"
       style="display:inline;fill:#000000;fill-opacity:1;stroke:none" />
  </g>
</svg>
