<svg width=".19756in" height=".25in" version="1.1" viewBox="0 0 59.267 75" xmlns="http://www.w3.org/2000/svg">
	<path id="Selection" d="m16.224 74.924c-1.3953 0.25037-3.5089-0.16973-4.876-0.56262-1.43-0.41071-4.1221-1.3128-5.2511-2.2055-0.74735-0.59075-1.8135-2.1614-2.2214-3.0457-0.69015-1.4956-0.88987-3.1601-1.0446-4.7823l-0.22317-2.0629c-0.30851-1.4497-0.80737-1.5416-1.2603-2.6256-0.20911-0.4998-0.22599-0.96865-0.22036-1.5003l0.77454-5.6262c0.067513-1.866-0.64045-3.1657-1.2106-4.876-0.40883-1.2275-0.67327-2.739-0.68921-4.0321-0.019667-1.6972 0.16035-2.9453 0.52323-4.5947 0.14347-0.65264 0.26068-1.3559 0.53731-1.9692 0.20442-0.45385 0.45103-0.86081 0.81861-1.2021 0.24567-0.22786 0.67139-0.44353 0.77267-0.77079v-1.4966l0.95083-4.0321c1.8426-6.6249 4.8798-13.127 9.378-18.379 1.4628-1.7085 4.0452-4.184 5.8672-5.4921 0.95365-0.68452 1.9786-1.2387 3.0006-1.8088 4.6632-2.6021 9.0835-3.9196 14.441-3.8577l0.9377 0.085331c4.6238 0.31788 8.6569 1.8904 12.471 4.5075 3.5164 2.4118 5.8831 4.6894 7.8064 8.535 0.46135 0.9227 0.92739 2.0123 1.2218 3.0006 0.46979 1.5763 0.55606 4.3228 0.53637 6.0013l-0.09752 0.9377v0.9377c-0.27475 2.7597-1.1252 5.4584-2.2758 7.9705 0 0-1.8238 3.8446-1.8238 3.8446-0.21848 0.44541-0.87675 1.7272-0.92551 2.1567-0.11534 1.0155 1.1309 0.84112 1.5556 1.0605 0.49135 0.25506 0.66858 0.95739 0.63013 1.4713-0.10033 1.3315-0.49605 2.574-0.86831 3.8446-1.0165 3.4723-2.0526 5.9703-4.7279 8.5293-1.0202 0.97615-2.1455 1.896-3.282 2.7343-1.2406 0.91426-1.8979 1.1918-2.9838 2.4268-0.8008 0.91145-1.4534 2.273-1.957 3.3757-0.24474 0.53636-0.43884 1.2181-0.77923 1.6879 0-2.2261 0.08064-3.6364-0.65639-5.8137-0.53355-1.5744-1.6672-2.8375-1.6879-4.5947v-1.5941s0.18004-1.8754 0.18004-1.8754c0.04873-0.61044 0.14159-1.8304 0.42103-2.3443 0.49886-0.9152 2.0751-1.4441 2.3499-2.9069 0.21286-1.1365-1.3428-1.5453-2.2008-1.4834-2.4061 0.17441-4.184 2.4099-5.3749 4.2965-0.32445 0.5148-0.75673 1.2331-1.0015 1.7816-0.94521-0.60013-3.3757-2.7972-4.3134-3.6411l-5.5324-4.8667c-1.7151-1.4497-2.5543-1.8388-4.4072-2.9509l-3.8446-2.2974c-1.6044-0.88238-3.2876-1.6213-5.1574-1.6213-0.86363 0-1.8351 0.19879-1.9514 1.2181-0.17347 1.5144 1.6963 3.1807 2.7015 4.1174l1.7816 1.5163 4.876 3.9308c0.66577 0.53449 2.6706 2.0817 3.0944 2.6256l-4.2197-3.0597-6.8452-4.9914c-1.114-0.7933-2.2655-1.55-3.4695-2.1989-0.68734-0.37039-1.4544-0.75766-2.2505-0.80642-1.3456-0.08158-2.5327 1.3025-2.3142 2.6171 0.14628 0.87769 0.86456 1.8154 1.4713 2.438 2.439 2.5008 6.0557 5.479 8.8135 7.7079 1.2922 1.0446 4.38 3.5473 5.2511 4.7635l-4.6885-3.2801-6.8452-4.44c-1.0296-0.68265-3.2191-2.2599-3.9262-0.34414-0.085327 0.23161-0.09846 0.41353-0.10502 0.65639-0.046867 1.9598 1.2518 3.1282 2.5309 4.4072 1.6897 1.6897 3.6092 3.2548 5.5324 4.6744 0.78579 0.5795 2.7053 1.9345 3.2079 2.6396 0.25412 0.35539 0.38259 0.72484 0.54293 1.1252-0.87957-0.08158-1.716-0.79986-2.438-1.2818l-5.0636-3.7011c-0.56356-0.36852-1.6907-1.1412-2.3443-1.1956-0.88613-0.07502-1.43 0.65545-1.3869 1.49 0.069387 1.3522 0.83174 2.5365 1.6504 3.5633 1.2612 1.5828 2.7156 2.9791 4.1437 4.4072 0.5073 0.5073 1.701 1.6504 2.0695 2.1567 0.49229 0.67421 0.59638 1.2978 0.84019 2.0629 0.20817 0.65358 0.59356 1.5491 0.91425 2.1567 0 0 3.026 4.9698 3.026 4.9698l1.1206 1.7816z" stroke="#000" stroke-width=".09377"/>
</svg>
