<svg width="745.13" height="744.98" version="1.1" viewBox="0 0 698.57 698.42" xmlns="http://www.w3.org/2000/svg" xmlns:xlink="http://www.w3.org/1999/xlink">
	<path id="Background" d="m141.9 7.5204e-6h405.22c76.965-0.02729 151.32 74.222 151.45 151.3v395.67c0 9.919-1.1597 14.981-3.0016 24.559-9.3733 48.899-42.923 88.835-87.047 110.86-18.624 9.2914-40.44 16.004-61.397 16.031h-394.31c-20.957-0.0455-42.773-6.74-61.397-16.031-43.033-21.462-74.29-58.682-86.461-105.4-3.1926-12.252-4.9391-16.973-4.9527-30.016v-395.67c0.04548-13.958 3.752-27.765 8.1863-40.931 20.343-60.278 71.48-100.54 133.71-110.36z" fill="#a81500"/>
	<g transform="translate(11.806 13.436)">
		<path transform="translate(-66.725,-69.657)" d="m462.7 383.69-7.8035 43.758s-16.008 91.162-16.008 91.162l-5.0565 29.172c-0.49836 2.9294-1.0089 9.0554-3.4399 10.915-2.0056 1.5315-6.5394 1.2398-9.019 1.2398h-151.94c-2.2122 0-6.1504 0.17017-8.1195-0.69284-5.2388-2.2973-13.674-20.396-16.494-26.048-17.005-34.095-20.797-62.173-20.36-99.671l1.0089-10.939c5.7493-57.53 33.329-112.7 73.185-154.37l25.477-24.128c3.5857-3.1238 11.559-9.9428 15.801-11.462 2.9172-1.0332 6.6366-0.87515 9.724-0.87515h59.559 48.62c6.4178 0 15.388-1.4586 20.663 2.431-64.652 43.503-134.62 101.35-152.45 181.11-1.9083 8.5085-4.2542 24.261-4.3515 32.818-0.15801 14.075 2.9537 31.408 6.7825 44.973 3.4399 12.191 9.7726 28.795 15.4 40.111 2.7349 5.5062 5.0443 11.414 9.4201 15.801l8.314-79.007 6.0775-54.697 3.841-32.818h59.559l31.603 1.2155zm6.0775-69.283 6.0775-53.482 3.3183-22.742c1.8354-3.5006 6.7096-2.7835 10.052-2.7835h178.68c3.0509 0 8.7272-0.64422 10.101 2.8078 0.92379 2.3216-1.9447 15.716-2.5039 19.071l-8.8123 51.051-46.189 1.2155-10.842 64.421-23.289 136.14-8.4112 49.835h-82.654l8.314-71.714 9.5781-79.007 10.064-83.869s36.465-8.3505 36.465-8.3505l29.172-7.451-24.31 1.2155-74.145 2.431-20.663 1.2155z" fill="#fff" stroke="#fff" stroke-width=".97251"/>
		<path id="Unnamed" d="m124.87 17.433 133.71 608.52m-53.211-622.16-199.2 278.34m46.389-231.95 452.98 227.85" fill="none" stroke="#fff" stroke-linecap="round" stroke-width="2.7"/>
		<path id="Arrow Background" transform="translate(-66.725,-69.657)" d="m461.94 213.19 61.086-19.07 116.45-36.308 47.724-14.937s33.406-9.8597 33.406-9.8597l-5.8413 27.68-8.0749 36.27-30.39 136.49-13.916 63.95c-5.4024-2.558-15.214-12.599-20.044-17.095l-31.497-28.758-13.363-12.379c-1.7562-1.6894-5.2115-5.45-7.6358-5.8032-3.7988-0.55359-8.972 6.9963-11.492 9.6306 0 0-29.951 32.452-29.951 32.452s-29.98 32.452-29.98 32.452-48.926 53.45-48.926 53.45-41.911 45.815-41.911 45.815l-13.124-14.317s-24.1-28.634-24.1-28.634l-37.778 42.951c-2.8252 3.2643-10.604 13.496-14.718 13.649-2.5484 0.0955-11.473-4.3715-14.317-5.6123l-34.361-15.004s-12.399-5.4405-12.399-5.4405c-1.3935-0.59176-3.627-1.7849-5.1446-1.3649-1.9758 0.55359-3.9038 3.5697-5.0396 5.1828l-9.3156 13.363s-38.179 54.405-38.179 54.405l-10.728 15.272c-1.4031 2.0139-3.3788 5.4023-6.0895 5.6314-2.7298 0.22907-8.1607-4.2856-10.461-5.8986l-25.771-18.001c-6.3759-4.5433-19.338-12.57-23.862-18.001 0 0 27.699-39.133 27.699-39.133s47.571-67.767 47.571-67.767 19.357-27.68 19.357-27.68c1.8708-2.6248 5.5741-8.9529 8.5425-9.831 3.0925-0.90674 12.809 4.1901 16.14 5.6123l41.042 17.982c3.9229 1.7085 14.193 7.6548 17.973 5.5359l18.564-20.254s36.804-41.042 36.804-41.042c4.8773-5.4596 11.96-15.138 18.288-18.135 0 0 25.847 31.498 25.847 31.498 1.7562 2.1094 6.9104 9.5065 9.5542 9.5065 2.4721 0 6.7577-4.8583 8.4184-6.6431 0 0 18.23-20.044 18.23-20.044l29.741-32.452s29.264-31.498 29.264-31.498l19.252-20.998-12.408-10.337-22.907-21.075-37.224-35.401z" fill="#a81500" stroke="#000" stroke-width=".95446"/>
		<path d="m106.98 496.76 83.613-119.27 70.087 30.74 61.48-68.858 35.658 43.036 183.21-199.2" fill="none" stroke="#0f0" stroke-width="54"/>
		<path transform="translate(-66.725,-69.657)" d="m495.71 227.89 145.58 133.91 42.998-192.88z" fill="#0f0"/>
		<path d="m96.892 144.77v416.25h504.78" fill="none" stroke="#fff" stroke-linecap="round" stroke-width="63"/>
	</g>
</svg>
