<svg width="1.3924in" height="1.7067in" version="1.1" viewBox="0 0 417.7 512.02" xmlns="http://www.w3.org/2000/svg">
	<path id="icon" d="m207.7 117.98c-6.1523-57.218 42.582-112.74 99.132-117.98 13.128 18.342-2.2159 49.706-12.569 68.772-18.155 29.15-50.943 52.46-86.563 49.207zm210 257c-13.501 43.876-38.19 84.608-70.28 117.36-20.728 22.561-54.924 23.763-81.299 11.22-29.888-15.722-66.41-15.497-96.273 0.25607-26.002 13.207-59.897 11.159-80.284-11.262-57.895-60.311-92.976-144.29-89.306-228.35 1.8766-52.228 28.428-106.75 78.056-128.52 32.493-16.192 71.203-13.04 103.44 2.0879 13.998 5.5063 29.8 12.783 44.243 4.8946 32.376-10.699 65.611-25.767 100.48-17.637 29.867 5.389 59.281 21.069 76.009 46.986-11.986 17.89-40.81 35.723-47.02 62.253-20.649 54.127 9.2415 118.74 62.234 140.7z" stroke="#000"/>
</svg>
