<?xml version="1.0" encoding="UTF-8" standalone="no"?>
<svg
   width="0.51146185in"
   height="0.66666663in"
   viewBox="0 0 153.43836 200.00028"
   version="1.1"
   id="svg370"
   xmlns="http://www.w3.org/2000/svg"
   xmlns:svg="http://www.w3.org/2000/svg">
  <defs
     id="defs374" />
  <g
     id="g6284"
     transform="matrix(0.5736029,0,0,0.5736029,-152.5336,-51.194059)">
    <path
       id="Yellow"
       fill="none"
       stroke="black"
       stroke-width="1"
       d="m 391,163.21 c 0,0 10,0 10,0 8.87,-0.2 17.65,1.51 26,4.48 52.95,18.84 68.85,86.9 31.83,128.31 -6.52,7.29 -15.95,14.35 -24.83,18.51 -12.02,5.63 -23.84,7.64 -37,7.49 -7.16,-0.09 -16.23,-2 -23,-4.34 C 331.71,303.04 310.29,255.58 326.06,214 337.29,184.43 360.64,168.4 391,163.21 Z"
       style="fill:#ffd500;fill-opacity:1;stroke:none;stroke-width:0.900001;stroke-dasharray:none" />
    <path
       id="Highlight"
       fill="none"
       stroke="black"
       stroke-width="1"
       d="m 343.33,203.33 c 0,0 -21.33,32 12.34,22.67 0,0 20.66,-14 27.33,-27 0,0 12,-25.67 -14.67,-17.67 0,0 -16,9 -22.33,17 0,0 -2.67,5 -2.67,5 z"
       style="fill:#ffffff;fill-opacity:1;stroke:none" />
    <path
       id="Socket"
       fill="none"
       stroke="#000000"
       stroke-width="1"
       d="M 383.33,432.33 C 360,429.67 365,397.67 365,397.67 c 0,0 70,0 70,0 0,0 7.33,31.33 -24,35 0,0 -27.67,-0.34 -27.67,-0.34 z"
       style="stroke-width:10.5;stroke-dasharray:none" />
    <path
       id="Bulb Outline"
       fill="none"
       stroke="#000000"
       stroke-width="1"
       d="m 405.67,378 c -13.66667,0.11 -27.33333,0.22 -41,0.33 -0.52233,-12.48255 0.092,-25.08346 -1.18047,-37.48813 -3.0354,-12.15611 -13.57249,-20.34712 -24.0305,-25.984 -23.95605,-23.38332 -40.17908,-58.68389 -31.21113,-92.36158 6.01956,-22.3376 20.52759,-42.05044 38.56542,-56.24477 26.53739,-18.55306 62.98766,-22.77517 92.2054,-8.0241 17.18902,8.31698 33.04088,20.58442 42.00693,37.79634 15.11158,24.82465 18.272,57.24872 4.8626,83.4968 -7.62417,15.54955 -19.03693,29.21038 -32.30485,40.21387 -10.93692,5.81326 -19.04562,17.53349 -17.63735,30.2094 -0.092,9.57539 -0.18403,19.15078 -0.27605,28.72617 -3.66667,0.11 -7.33333,0.22 -11,0.33"
       style="stroke-width:10.5;stroke-linecap:round;stroke-dasharray:none" />
    <path
       id="Lines"
       fill="none"
       stroke="#000000"
       stroke-width="1"
       d="m 272.67,168.67 c 0,0 24.33,15.33 24.33,15.33 m 29,-68.67 c 0,0 14.33,23.34 14.33,23.34 M 400,96 c 0,0 0,26.33 0,26.33 M 474,115 c 0,0 -14.33,24.33 -14.33,24.33 m 67,29.34 C 526.67,168.67 504,183 504,183 M 400,357.67 c 0,0 15,0 15,0 m 52.33,-115.34 c 0,0 0.34,12 -2.66,18 m -12,23.34 c 0,0 -16.67,23 -52.34,26.33"
       style="stroke-width:13.5;stroke-linecap:round;stroke-dasharray:none" />
  </g>
</svg>
