<svg width=".72917in" height=".61567in" version="1.1" viewBox="0 0 218.75 184.7" xmlns="http://www.w3.org/2000/svg">
	<g transform="scale(.4263)">
		<g>
			<g>
				<path id="Light Bar" d="m128.5 0.65599c84.536 0.07457 169.08-0.14943 253.61 0.11217 8.8077-0.17106 17.369 6.1982 17.893 15.364 0.85683 10.325 2.2109 24.503-8.7583 30.048-11.091 3.999-23.125 1.8244-34.678 2.3862-74.704-0.04044-149.41 0.0809-224.11-0.06066-10.415 0.85388-20.004-7.2611-19.75-17.867-0.68643-10.304-1.033-24.568 10.903-28.536 1.5859-0.62108 3.2305-1.0826 4.8932-1.4456z" fill="#ebedef" stroke="#ebedef"/>
				<path id="Light Bar Left" d="m192.5 48.566c-19.699-0.02703-39.398 0.05511-59.096-0.04299-6.48-0.09228-14.148-1.6011-17.605-7.7286-3.7119-7.1799-4.0046-15.656-3.0551-23.537 0.61107-5.5695 3.1677-11.339 8.3614-14.023 7.4424-3.6089 15.962-2.5562 23.965-2.6688h47.431v48z" fill="#0076c1" stroke="#0076c1"/>
				<path id="Light Bar Right" d="m320.5 0.56599c19.699 0.02703 39.398-0.05511 59.096 0.04299 6.48 0.09228 14.148 1.6011 17.605 7.7286 3.7119 7.1799 4.0046 15.656 3.0551 23.537-0.61107 5.5695-3.1677 11.339-8.3614 14.023-7.4424 3.6089-15.962 2.5562-23.965 2.6688h-47.431v-48z" fill="#e93000" stroke="#e93000"/>
				<path id="Top" d="m50.5 176.57c9.2748-24.806 23.564-47.387 35.566-70.947 9.1646-16.291 16.724-35.201 33.039-45.565 27.487-11.261 57.85-9.6612 86.992-11.488 36.858 0.22472 73.747-0.45315 110.59 0.34559 26.854 1.8992 55.296 0.53038 80.052 12.644 13.631 11.004 21.402 27.567 29.702 42.732 12.108 24.038 26.405 47.118 36.062 72.279h-23c2.0117-14.782-8.7671-26.729-13.849-39.837-8.6075-17.45-18.552-34.264-28.649-50.887-8.3436-16.277-27.864-16.381-43.59-18.74-39.922-4.1391-80.109-2.0205-120.17-2.537-32.669-0.1011-65.669-0.4423-97.754 6.5599-17.144 3.7615-23.379 22.449-32.208 35.567-10.67 20.195-21.909 40.307-30.129 61.628 4.1189 11.42-6.37 7.708-13.503 8.2442h-9.1456z" fill="#cbd7dc" stroke="#cbd7dc"/>
			</g>
			<path d="m11.967 249.7 0.49854 80.265 131.61-1.9942-14.458-84.253z" fill="#fff" stroke="#000" stroke-width="3.125px"/>
			<path d="m397.84 242.22-35.396 82.758 141.09 0.99709-1.4956-74.781z" fill="#fff" stroke="#000" stroke-width="3.125px"/>
			<path id="Windshield" d="m202.5 64.706c34.877 0.20699 69.782-0.41685 104.64 0.31714 18.955 0.94808 38.03 0.29319 56.811 3.7583 15.512 0.57638 30.347 7.1722 36.792 22.074 11.472 19.06 21.335 39.068 31.491 58.854 7.4573 11.247 13.669 32.622-4.8178 36.641-16.493 0.22077-32.887-2.8969-49.336-4.144-32.602-3.8748-65.454-3.8515-98.188-5.3662-18.099-0.36783-36.268-0.64885-54.355 0.18959-14.551 0.89088-29.149 0.31471-43.681 1.8175-28.842 1.8436-57.686 3.825-86.357 7.5483-14.363 4.3108-27.917-10.242-20.154-23.996 10.658-23.697 23.849-46.177 35.952-69.157 6.1032-10.929 14.735-22.27 28.447-22.901 16.509-2.7799 33.314-3.9332 50.017-4.7603 4.257 0.0142 8.5444-0.0625 12.738-0.87469z" fill="#00b7fb" stroke="#00b7fb"/>
			<path d="m138.6 249.7 49.355 111.67 142.58-2.4927 45.866-112.67z" fill="#cbd7dc" stroke="#cbd7dc" stroke-width="3.125px"/>
			<path id="Front" d="m128.5 372.57c-0.61146 16.793 1.4688 33.912-1.5961 50.42-7.1083 14.231-24.985 8.321-37.767 9.5798-20.419-0.55423-41.036 1.237-61.303-1.1606-15.916-5.7236-10.254-25.065-11.334-38.202-1.2232-9.354 3.6845-21.97-5.7839-28.061-11.644-20.166-8.7135-44.53-10.216-67.019 0.25776-24.3-1.3372-49.742 8.32-72.557 9.8926-19.306 27.446-32.913 42.05-48.43 18.787-7.6314 29.546 13.005 47.336 8.8088 46.887-5.8949 94.154-7.6819 141.33-9.3788 27.887-0.40327 55.72 0.80016 83.575 1.6304 33.578 2.3091 67.172 5.0459 100.64 8.376 16.245-11.102 41.545-17.195 53.819 4.9566 17.629 16.733 33.755 37.546 34.252 62.993 0.55788 33.36 2.7505 67.245-3.7225 100.18-6.7074 11.423-14.281 21.212-11.598 35.486-1.2642 12.968 3.8207 28.474-6.1414 38.793-13.431 6.2621-29.041 2.5843-43.551 3.5826-16.844-0.47678-33.854 1.0879-50.566-1.0662-16.147-5.1188-10.782-24.36-11.742-37.297v-21.637c-27.161 3.8307-54.216 9.0402-81.443 12-33.306-0.35098-66.72 0.7008-99.96-0.52354-24.866-3.8255-49.731-7.651-74.597-11.476zm-99-115.84c-20.838 7.4219-12.15 35.841-11.839 53.035 5.0926 15.346 23.654 9.7445 36.055 10.805 23.221-0.45152 46.576 0.97507 69.699-0.85484 23.354-9.3819 2.7892-36.016-3.8177-50.384-5.5763-15.466-22.131-12.405-35.016-12.601h-55.08zm141-0.06c-23.428 3.1125-14.143 28.056-5.197 41.006 8.9667 16.651 15.831 34.618 26.527 50.184 12.233 8.1192 27.907 3.4738 41.771 4.71 26.398-0.40018 52.897 0.85041 79.225-0.72375 15.295-4.0124 17.534-22.587 25.017-34.462 6.6817-15.141 16.734-29.155 20.358-45.343-1.3508-17.625-22.239-15.336-35.326-15.371h-152.38zm236 0.03c-16.71 10.383-25.627 33.515-27.728 52.517 4.0452 15.504 22.699 10.496 34.795 11.353 24.213-0.56888 48.621 1.2158 72.695-1.045 14.57-5.3077 9.1752-23.135 10.238-35.17 2.067-13.818-3.6192-31.469-21.295-27.655h-68.705z" fill="#4d6f7b" stroke="#4d6f7b"/>
			<path id="Tire Shadows" d="m16.5 368.57h79s33 4 33 4v15s-35-4-35-4h-77v-15zm368 4 33-4h79v15h-76l-36 4v-15z" fill="#32464f" stroke="#32464f"/>
		</g>
		<path id="Shadowed Part" d="m127.46 371.37c-16.5-4-88-4.25-114-2.83-1.7-2.64-5.29-5.04-4.97-8.14 0.35-3.46 10.05-9.73 12.97-12.03l25-19.13c8.78-6.59 75.56-53.16 75.99-55.83 0.46-2.93 4.77-5.86 7.01-7.62l21-16.05 177-135.25 49-37.49c3.44-2.6 16.85-13.77 19.99-14.27 3.12-0.49 5.27 2.54 7.01 4.66 4.88 5.92 9.05 12.41 13 18.98 0 0 19.26 36 19.26 36s13.96 26 13.96 26c3.45 6.54 11.5 20.99 10.78 28 9.01 3.85 16.5 13.89 23.09 21 8.33 8.99 16.79 18.49 21.46 30 7.07 17.45 6.45 36.54 6.45 55 0 20.85 0.66 42.38-2.59 63-0.71 4.49-2.23 11.09-4.49 15-0.96 1.65-1.67 4.25-7.67 6.25-31.75 1.5-98.75 0.5-113.25 4.75 0 0-53 8.27-53 8.27s-29 3.73-29 3.73h-91s-35-4.58-35-4.58-48-7.42-48-7.42z" fill-opacity=".1616" stroke="#000"/>
	</g>
</svg>
