<?xml version="1.0" encoding="UTF-8" standalone="no"?>
<svg
   width="0.5in"
   height="0.32908508in"
   viewBox="0 0 149.99993 98.725474"
   version="1.1"
   id="svg4789"
   sodipodi:docname="pulling-hair.svg"
   inkscape:version="1.2.2 (b0a8486, 2022-12-01)"
   xmlns:inkscape="http://www.inkscape.org/namespaces/inkscape"
   xmlns:sodipodi="http://sodipodi.sourceforge.net/DTD/sodipodi-0.dtd"
   xmlns="http://www.w3.org/2000/svg"
   xmlns:svg="http://www.w3.org/2000/svg">
  <defs
     id="defs4793" />
  <sodipodi:namedview
     id="namedview4791"
     pagecolor="#ffffff"
     bordercolor="#666666"
     borderopacity="1.0"
     inkscape:showpageshadow="2"
     inkscape:pageopacity="0.0"
     inkscape:pagecheckerboard="0"
     inkscape:deskcolor="#d1d1d1"
     inkscape:document-units="in"
     showgrid="false"
     inkscape:zoom="11.346849"
     inkscape:cx="17.229453"
     inkscape:cy="24.191739"
     inkscape:current-layer="svg4789" />
  <path
     id="Selection"
     fill="none"
     stroke="black"
     stroke-width="0.762943"
     d="m 76.02456,25.6246 c 1.159673,-0.633243 1.502997,-0.610354 2.433787,-1.747139 L 87.323742,5.7880881 c 1.243597,-2.021798 3.753678,-6.79019 6.759673,-5.59999995 2.784741,1.08337895 0.923161,4.69972795 0,6.36294295 -3.761308,6.5841959 -8.300817,13.8016339 -9.666485,21.3623969 6.614714,-5.928065 6.12643,-9.368937 19.07357,-16.769482 1.89973,-1.091008 5.18038,-3.0517709 7.1564,-1.075749 0.6485,0.648501 0.90028,1.548774 0.67139,2.441417 -0.50354,1.899727 -5.33297,4.341144 -7.06485,5.485558 -3.92915,2.609265 -10.513349,8.033788 -12.809807,12.077384 -1.953134,3.433243 1.251226,4.730245 1.99128,10.810899 1.281744,10.597275 -3.746049,18.875204 -14.358582,21.438692 -10.887193,2.632152 -20.614714,-4.600545 -22.537329,-15.33515 -0.846867,-4.737874 0.228882,-5.638147 0.869754,-9.788555 0.381472,-2.502453 -1.472479,-6.240872 -4.409809,-5.744959 l -22.750953,9.429972 21.965122,10.406539 c 1.953134,1.617439 3.685014,4.93624 5.638147,7.141145 5.325341,5.99673 10.902452,8.743324 18.936239,8.361852 5.638147,-0.26703 11.344959,-3.532425 15.121526,-7.629427 1.937875,-2.105722 3.707902,-5.577112 5.638147,-6.950409 1.762394,-1.251226 8.110085,-2.784741 10.520985,-3.479019 5.32534,-1.525885 16.44904,-5.119346 21.36239,-5.561853 L 119.5123,23.335772 c -2.44142,1.052861 -8.8654,4.676839 -11.22289,3.875749 -1.99891,-0.679019 -1.93025,-3.242507 -0.54932,-4.66921 1.60218,-1.640327 7.17929,-3.746049 9.48338,-4.547139 -0.9842,-6.187466 2.39564,-11.3678469 9.15531,-10.5057219 3.92916,0.495913 4.96676,2.9678479 7.75913,2.395641 3.1891,-0.648502 11.37548,-6.27139 14.12207,-4.760763 2.43379,1.32752 1.06812,3.982561 -0.63324,5.2490459 -2.16676,1.609809 -10.10899,4.814169 -12.85559,5.33297 l 10.87194,20.599455 c 1.57929,3.158583 4.01308,7.19455 4.30299,10.681198 0.70954,8.422888 -5.71444,9.376567 -12.12316,11.222888 l -24.41416,7.087738 c -2.24306,0.648502 -8.80436,2.159128 -10.22344,3.60109 -1.48774,1.518256 -1.21308,4.341147 -1.22071,6.317167 l 0.55081,23.5096 H 48.897305 L 47.795678,74.45294 C 47.780418,66.648032 46.55971,67.34231 35.588593,62.566288 L 4.3384581,48.245853 c -4.79128052,-3.051771 -5.8441415,-8.987466 -1.99891,-13.305722 1.8997275,-2.13624 4.7531334,-3.082289 7.3089921,-4.188556 L 21.855624,25.6246 39.403307,17.995172 c -2.044686,-0.579836 -5.699182,-1.708992 -7.034332,-3.425613 -1.434332,-1.846321 -0.595095,-4.12752 1.777657,-4.386921 3.273024,-0.3662119 8.155858,3.570573 11.360217,4.486104 2.594006,0.747684 4.646322,-0.175477 7.59891,1.380926 6.40109,3.387466 1.892098,7.850681 9.948774,14.152588 l 0.762942,-0.762942 C 61.933007,24.037679 58.629465,17.36193 55.394587,12.654573 54.097585,10.770104 51.244179,7.7030741 52.213116,5.2463991 c 1.518256,-3.822343 5.844142,0.488283 7.102997,2.082833 4.570027,5.7754769 6.706267,12.9013629 10.604905,19.0583109 l 3.501907,-16.021798 c 0.556948,-1.8386919 1.342779,-4.8141689 3.494278,-5.3711169 2.540599,-0.648502 3.318801,1.846321 3.021253,3.86049 z"
     style="fill:#000000;fill-opacity:1;stroke:none"
     sodipodi:nodetypes="cccccccscccccccccccccccccccccccccccccccccccccccccccccccccccccc" />
</svg>
