<?xml version="1.0" encoding="UTF-8" standalone="no"?>
<!DOCTYPE svg PUBLIC "-//W3C//DTD SVG 20010904//EN"
              "http://www.w3.org/TR/2001/REC-SVG-20010904/DTD/svg10.dtd">

<svg xmlns="http://www.w3.org/2000/svg"
     width="1.70667in" height="1.70667in"
     viewBox="0 0 512 512">
  <path id="Shadowed Part"
        fill="none" stroke="black" stroke-width="1"
        d="M 128.00,420.00
           C 111.50,416.00 40.00,415.75 14.00,417.17
             12.30,414.53 8.71,412.13 9.03,409.03
             9.38,405.57 19.08,399.30 22.00,397.00
             22.00,397.00 47.00,377.87 47.00,377.87
             55.78,371.28 122.56,324.71 122.99,322.04
             123.45,319.11 127.76,316.18 130.00,314.42
             130.00,314.42 151.00,298.37 151.00,298.37
             151.00,298.37 328.00,163.12 328.00,163.12
             328.00,163.12 377.00,125.63 377.00,125.63
             380.44,123.03 393.85,111.86 396.99,111.36
             400.11,110.87 402.26,113.90 404.00,116.02
             408.88,121.94 413.05,128.43 417.00,135.00
             417.00,135.00 436.26,171.00 436.26,171.00
             436.26,171.00 450.22,197.00 450.22,197.00
             453.67,203.54 461.72,217.99 461.00,225.00
             470.01,228.85 477.50,238.89 484.09,246.00
             492.42,254.99 500.88,264.49 505.55,276.00
             512.62,293.45 512.00,312.54 512.00,331.00
             512.00,351.85 512.66,373.38 509.41,394.00
             508.70,398.49 507.18,405.09 504.92,409.00
             503.96,410.65 503.25,413.25 497.25,415.25
             465.50,416.75 398.50,415.75 384.00,420.00
             384.00,420.00 331.00,428.27 331.00,428.27
             331.00,428.27 302.00,432.00 302.00,432.00
             302.00,432.00 211.00,432.00 211.00,432.00
             211.00,432.00 176.00,427.42 176.00,427.42
             176.00,427.42 128.00,420.00 128.00,420.00 Z" />
</svg>
