<?xml version="1.0" encoding="UTF-8" standalone="no"?>
<svg
   width="0.49997982in"
   height="0.29086527in"
   version="1.1"
   viewBox="0 0 71.997095 41.884376"
   id="svg250"
   sodipodi:docname="update.svg"
   inkscape:version="1.2.2 (b0a8486, 2022-12-01)"
   xmlns:inkscape="http://www.inkscape.org/namespaces/inkscape"
   xmlns:sodipodi="http://sodipodi.sourceforge.net/DTD/sodipodi-0.dtd"
   xmlns:xlink="http://www.w3.org/1999/xlink"
   xmlns="http://www.w3.org/2000/svg"
   xmlns:svg="http://www.w3.org/2000/svg">
  <sodipodi:namedview
     id="namedview252"
     pagecolor="#ffffff"
     bordercolor="#666666"
     borderopacity="1.0"
     inkscape:showpageshadow="2"
     inkscape:pageopacity="0.0"
     inkscape:pagecheckerboard="0"
     inkscape:deskcolor="#d1d1d1"
     inkscape:document-units="in"
     showgrid="false"
     inkscape:zoom="17.343748"
     inkscape:cx="24.072074"
     inkscape:cy="12.223425"
     inkscape:current-layer="svg250" />
  <defs
     id="defs192">
    <linearGradient
       id="linearGradient50689">
      <stop
         offset="0"
         id="stop182" />
    </linearGradient>
    <linearGradient
       id="linearGradient50691"
       x1="330.98001"
       x2="367.87"
       y1="86.535004"
       y2="86.535004"
       gradientUnits="userSpaceOnUse"
       xlink:href="#linearGradient50689" />
    <linearGradient
       id="linearGradient50697"
       x1="1380.5"
       x2="1418.4"
       y1="87.535004"
       y2="87.535004"
       gradientUnits="userSpaceOnUse"
       xlink:href="#linearGradient50689" />
    <linearGradient
       id="linearGradient50703"
       x1="329.98001"
       x2="366.87"
       y1="811.53998"
       y2="811.53998"
       gradientUnits="userSpaceOnUse"
       xlink:href="#linearGradient50689" />
    <linearGradient
       id="linearGradient50705"
       x1="1382"
       x2="1418.9"
       y1="811.53998"
       y2="811.53998"
       gradientUnits="userSpaceOnUse"
       xlink:href="#linearGradient50689" />
    <linearGradient
       id="linearGradient1055"
       x1="11.995"
       x2="1734"
       y1="448.5"
       y2="448.5"
       gradientUnits="userSpaceOnUse">
      <stop
         stop-color="#005fa3"
         offset="0"
         id="stop189" />
    </linearGradient>
  </defs>
  <g
     id="g1188"
     transform="matrix(0.04178576,0,0,0.04781347,-0.48030776,-0.50213754)">
    <path
       id="Outside"
       d="M 41,11.53 C 41,11.53 88,11 88,11 h 1607 c 16.87,0.03 30.77,12.51 36.3,28 2.29,6.41 2.69,9.28 2.7,16 v 786 c -0.04,24.59 -19.13,44.96 -44,45 H 52 C 35.79,885.81 17.11,872.73 12.63,857 11.9,854.4 12,851.67 12,849 V 46 C 12.08,30.02 26.27,15.89 41,11.53 Z"
       fill="url(#linearGradient1055)"
       stroke="#000000"
       style="fill:url(#linearGradient1055)" />
    <path
       id="Inside"
       d="m 60,24.06 h 1603 c 20.71,-0.06 37.01,-1.37 50.56,17.94 2.45,3.48 3.75,5.96 5.08,10 1.94,5.85 2.35,9.92 2.36,16 v 760 c -0.04,26.36 -17.64,43.96 -44,44 H 82 c -20.71,0 -37.01,1.31 -50.56,-18 -2.45,-3.48 -3.75,-5.96 -5.08,-10 -1.94,-5.85 -2.35,-9.92 -2.36,-16 V 68 C 24.04,44.81 37.07,28.73 60,24.06 Z"
       fill="none"
       stroke="#b4cde7"
       stroke-width="3.6"
       style="paint-order:markers fill stroke" />
    <g
       stroke="#000000"
       id="g204">
      <path
         d="m 344,793.31 c 2.22,-0.14 3.72,-0.37 6,0 23.91,1.46 21.96,38.34 -3,36.59 -19.51,-1.36 -24.49,-29.67 -3,-36.59 z"
         fill="url(#linearGradient50703)"
         id="path196"
         style="fill:url(#linearGradient50703)" />
      <path
         d="m 1396,793.31 c 2.22,-0.14 3.72,-0.37 6,0 23.91,1.46 21.96,38.34 -3,36.59 -19.51,-1.36 -24.49,-29.67 -3,-36.59 z"
         fill="url(#linearGradient50705)"
         id="path198"
         style="fill:url(#linearGradient50705)" />
      <path
         d="m 1395,69.31 c 2.22,-0.14 3.72,-0.37 6,0 23.91,1.46 21.96,38.34 -3,36.59 -19.51,-1.36 -24.49,-29.67 -3,-36.59 z"
         fill="url(#linearGradient50697)"
         id="path200"
         style="fill:url(#linearGradient50697)" />
      <path
         d="m 345,68.31 c 2.22,-0.14 3.72,-0.37 6,0 23.91,1.46 21.96,38.34 -3,36.59 -19.51,-1.36 -24.49,-29.67 -3,-36.59 z"
         fill="url(#linearGradient50691)"
         id="path202"
         style="fill:url(#linearGradient50691)" />
    </g>
    <g
       transform="matrix(1.2036,0,0,1.2036,-177.77,9.2698)"
       fill="#f9fb5d"
       stroke-width="2.5782"
       aria-label="CALIFORNIA"
       id="g226">
      <path
         d="m 618.82,177.64 q 0,3.525 -1.7625,7.6542 -1.7121,4.0789 -5.4385,8.057 -3.7264,3.9278 -9.5174,6.3953 -5.791,2.4675 -13.496,2.4675 -5.8413,0 -10.625,-1.1078 -4.7839,-1.1078 -8.7117,-3.4242 -3.8774,-2.3668 -7.1506,-6.1938 -2.9207,-3.4746 -4.9853,-7.7549 -2.0646,-4.3306 -3.1221,-9.2152 -1.0071,-4.8846 -1.0071,-10.373 0,-8.9131 2.5682,-15.963 2.6185,-7.0499 7.4528,-12.035 4.8342,-5.0356 11.33,-7.6542 6.496,-2.6185 13.848,-2.6185 8.9634,0 15.963,3.5753 6.9996,3.5753 10.726,8.8627 3.7264,5.2371 3.7264,9.9202 0,2.5682 -1.8128,4.5321 -1.8128,1.9639 -4.381,1.9639 -2.8703,0 -4.3306,-1.3596 -1.41,-1.3596 -3.1725,-4.6832 -2.9207,-5.4888 -6.8988,-8.2081 -3.9278,-2.7192 -9.7188,-2.7192 -9.2152,0 -14.704,6.9996 -5.4385,6.9995 -5.4385,19.891 0,8.611 2.4171,14.352 2.4171,5.6903 6.8485,8.5102 4.4314,2.82 10.373,2.82 6.4456,0 10.877,-3.1725 4.4817,-3.2228 6.7478,-9.4166 0.95677,-2.9207 2.3668,-4.7335 1.41,-1.8632 4.5321,-1.8632 2.6689,0 4.5824,1.8632 1.9136,1.8632 1.9136,4.6328 z"
         id="path206" />
      <path
         d="m 679.5,192.59 -3.525,-9.2656 h -30.012 l -3.525,9.467 q -2.0646,5.5392 -3.525,7.5031 -1.4603,1.9136 -4.7839,1.9136 -2.82,0 -4.9853,-2.0646 -2.1653,-2.0646 -2.1653,-4.6832 0,-1.5107 0.50357,-3.1221 0.50356,-1.6114 1.6618,-4.4817 l 18.884,-47.939 q 0.8057,-2.0646 1.9135,-4.9349 1.1582,-2.9207 2.4171,-4.8342 1.3093,-1.9136 3.3739,-3.0718 2.115,-1.2086 5.1867,-1.2086 3.1221,0 5.1867,1.2086 2.115,1.1582 3.3739,3.0214 1.3093,1.8632 2.1653,4.0285 0.90642,2.115 2.266,5.6903 l 19.287,47.637 q 2.266,5.4385 2.266,7.906 0,2.5682 -2.1653,4.7335 -2.115,2.115 -5.1364,2.115 -1.7625,0 -3.0214,-0.65463 -1.2589,-0.60428 -2.115,-1.6618 -0.85606,-1.1078 -1.8632,-3.3235 -0.95677,-2.266 -1.6618,-3.9782 z m -29.61,-20.495 h 22.056 l -11.129,-30.466 z"
         id="path208" />
      <path
         d="m 721.1,134.94 v 53.73 h 30.315 q 3.6257,0 5.5392,1.7625 1.9639,1.7625 1.9639,4.4314 0,2.7192 -1.9136,4.4314 -1.9135,1.6618 -5.5896,1.6618 h -36.106 q -4.8846,0 -7.0499,-2.1653 -2.115,-2.1653 -2.115,-6.9995 v -56.852 q 0,-4.5321 2.0143,-6.7981 2.0646,-2.266 5.3881,-2.266 3.3739,0 5.4385,2.266 2.115,2.2157 2.115,6.7981 z"
         id="path210" />
      <path
         d="m 769.34,193.1 v -58.162 q 0,-4.5321 2.0646,-6.7981 2.0646,-2.266 5.3378,-2.266 3.3739,0 5.4385,2.266 2.115,2.2157 2.115,6.7981 V 193.1 q 0,4.5824 -2.115,6.8485 -2.0646,2.266 -5.4385,2.266 -3.2228,0 -5.3378,-2.266 Q 769.34,197.6321 769.34,193.1 Z"
         id="path212" />
      <path
         d="m 845.12,138.66 h -29.459 v 18.884 h 24.624 q 3.4242,0 5.086,1.561 1.7121,1.5107 1.7121,4.0789 0,2.5682 -1.7121,4.0789 -1.7121,1.5107 -5.086,1.5107 h -24.624 v 24.322 q 0,4.6328 -2.115,6.8988 -2.0646,2.2157 -5.3378,2.2157 -3.3235,0 -5.4385,-2.266 -2.0646,-2.266 -2.0646,-6.8485 v -56.802 q 0,-3.2228 0.95677,-5.2371 0.95678,-2.0646 2.971,-2.971 2.0646,-0.95677 5.2371,-0.95677 h 35.25 q 3.5753,0 5.2874,1.6114 1.7625,1.561 1.7625,4.1292 0,2.6185 -1.7625,4.2299 -1.7121,1.561 -5.2874,1.561 z"
         id="path214" />
      <path
         d="m 895.78,125.87 q 11.481,0 19.689,4.6832 8.2585,4.6328 12.488,13.244 4.2299,8.5606 4.2299,20.143 0,8.5606 -2.3164,15.56 -2.3164,6.9996 -6.9492,12.136 -4.6328,5.1364 -11.381,7.8556 -6.7478,2.7192 -15.459,2.7192 -8.6613,0 -15.51,-2.7696 -6.8485,-2.82 -11.431,-7.906 -4.5825,-5.086 -6.9492,-12.237 -2.3164,-7.1506 -2.3164,-15.459 0,-8.5102 2.4171,-15.61 2.4675,-7.1003 7.1003,-12.086 4.6328,-4.9853 11.28,-7.6038 6.647,-2.6689 15.107,-2.6689 z m 21.25,37.969 q 0,-8.1074 -2.6185,-14.049 -2.6185,-5.9421 -7.5031,-8.9634 -4.8342,-3.0717 -11.129,-3.0717 -4.4817,0 -8.3088,1.7121 -3.7767,1.6618 -6.5463,4.8846 -2.7192,3.2228 -4.3307,8.2584 -1.561,4.9853 -1.561,11.229 0,6.2946 1.561,11.381 1.6114,5.086 4.4817,8.4599 2.9207,3.3235 6.647,4.9853 3.7767,1.6618 8.2585,1.6618 5.7406,0 10.524,-2.8703 4.8342,-2.8703 7.6542,-8.8627 2.8703,-5.9924 2.8703,-14.754 z"
         id="path216" />
      <path
         d="m 965.07,169.38 h -5.2371 v 23.718 q 0,4.6832 -2.0646,6.8988 -2.0646,2.2157 -5.3881,2.2157 -3.5753,0 -5.5392,-2.3164 -1.9639,-2.3164 -1.9639,-6.7981 v -56.802 q 0,-4.8342 2.1653,-6.9995 2.1653,-2.1653 6.9995,-2.1653 h 24.322 q 5.0356,0 8.611,0.45321 3.5753,0.40285 6.4456,1.7121 3.4746,1.4603 6.1435,4.1796 2.6689,2.7192 4.0285,6.3449 1.41,3.5753 1.41,7.6038 0,8.2585 -4.6832,13.193 -4.6328,4.9349 -14.1,6.9995 3.9782,2.115 7.6038,6.2442 3.6257,4.1292 6.4457,8.8124 2.8703,4.6328 4.4313,8.4095 1.6114,3.7264 1.6114,5.1364 0,1.4603 -0.9567,2.9207 -0.9065,1.41 -2.5179,2.2157 -1.6114,0.85606 -3.7264,0.85606 -2.5178,0 -4.2299,-1.2086 -1.7121,-1.1582 -2.971,-2.971 -1.2086,-1.8128 -3.3235,-5.3378 l -5.9924,-9.9706 q -3.2228,-5.4889 -5.791,-8.3592 -2.5178,-2.8703 -5.1364,-3.9278 -2.6185,-1.0575 -6.5967,-1.0575 z m 8.5606,-31.02 h -13.798 v 20.294 h 13.395 q 5.3881,0 9.0642,-0.90642 3.676,-0.95677 5.5896,-3.1725 1.9639,-2.266 1.9639,-6.1938 0,-3.0717 -1.561,-5.3881 -1.561,-2.3668 -4.3307,-3.525 -2.6185,-1.1078 -10.323,-1.1078 z"
         id="path218" />
      <path
         d="m 1038.6,134.83 28.754,43.508 v -43.911 q 0,-4.2803 1.8128,-6.3953 1.8632,-2.1653 4.9853,-2.1653 3.2228,0 5.086,2.1653 1.8632,2.115 1.8632,6.3953 v 58.061 q 0,9.7188 -8.057,9.7188 -2.0143,0 -3.6257,-0.60428 -1.6114,-0.55392 -3.0214,-1.8128 -1.41,-1.25888 -2.6185,-2.9207 -1.2086,-1.7121 -2.4171,-3.4746 l -28.049,-43.004 v 43.256 q 0,4.23 -1.9639,6.3953 -1.9639,2.1653 -5.0356,2.1653 -3.1725,0 -5.086,-2.1653 -1.9136,-2.2157 -1.9136,-6.3953 v -56.953 q 0,-3.6257 0.8058,-5.6903 0.9567,-2.266 3.1724,-3.676 2.2157,-1.4603 4.7839,-1.4603 2.0142,0 3.4242,0.65463 1.4603,0.65464 2.5178,1.7625 1.1079,1.1078 2.2157,2.8703 1.1582,1.7625 2.3668,3.676 z"
         id="path220" />
      <path
         d="m 1098.1,193.1 v -58.162 q 0,-4.5321 2.0646,-6.7981 2.0646,-2.266 5.3378,-2.266 3.3739,0 5.4385,2.266 2.115,2.2157 2.115,6.7981 V 193.1 q 0,4.5824 -2.115,6.8485 -2.0646,2.266 -5.4385,2.266 -3.2228,0 -5.3378,-2.266 Q 1098.1,197.6321 1098.1,193.1 Z"
         id="path222" />
      <path
         d="m 1177,192.59 -3.525,-9.2656 h -30.012 l -3.525,9.467 q -2.0646,5.5392 -3.5249,7.5031 -1.4603,1.9136 -4.7839,1.9136 -2.8199,0 -4.9853,-2.0646 -2.1653,-2.0646 -2.1653,-4.6832 0,-1.5107 0.5036,-3.1221 0.5035,-1.6114 1.6617,-4.4817 l 18.884,-47.939 q 0.8057,-2.0646 1.9136,-4.9349 1.1582,-2.9207 2.4171,-4.8342 1.3092,-1.9136 3.3738,-3.0718 2.115,-1.2086 5.1868,-1.2086 3.1221,0 5.1867,1.2086 2.1149,1.1582 3.3739,3.0214 1.3092,1.8632 2.1653,4.0285 0.9064,2.115 2.266,5.6903 l 19.286,47.637 q 2.2661,5.4385 2.2661,7.906 0,2.5682 -2.1653,4.7335 -2.115,2.115 -5.1364,2.115 -1.7625,0 -3.0214,-0.65463 -1.2589,-0.60428 -2.115,-1.6618 -0.856,-1.1078 -1.8632,-3.3235 -0.9567,-2.266 -1.6617,-3.9782 z m -29.61,-20.495 h 22.056 l -11.129,-30.466 z"
         id="path224" />
    </g>
    <path
       d="m 1371,122.74 c 5.48,-1.35 17.73,-0.74 23.96,-0.74 h 235 c 10.15,0.14 10.99,3.94 11,13 v 153 c -0.02,3.4 0.18,6.96 -2.43,9.57 -2.79,2.79 -6.95,2.42 -10.57,2.43 h -251 c -10.15,-0.14 -10.99,-3.94 -11,-13 V 133 c 0.08,-5.32 0.21,-7.44 5.04,-10.26 z"
       fill="#f95214"
       id="path228" />
    <g
       transform="matrix(1.171,0,0,1.171,-257.11,-36.075)"
       stroke-width="2.5063"
       aria-label="2023"
       id="g238">
      <path
         d="m 1443.6,233.58 v 12.776 h -48.217 q 0.7832,-7.2448 4.6993,-13.706 3.9161,-6.5105 15.469,-17.231 9.3007,-8.6644 11.406,-11.748 2.8391,-4.2588 2.8391,-8.4196 0,-4.6014 -2.4965,-7.049 -2.4475,-2.4965 -6.8042,-2.4965 -4.3077,0 -6.8531,2.5944 -2.5455,2.5944 -2.9371,8.6154 l -13.706,-1.3706 q 1.2237,-11.357 7.6853,-16.301 6.4615,-4.9441 16.154,-4.9441 10.622,0 16.692,5.7273 6.07,5.7273 6.07,14.245 0,4.8462 -1.7623,9.2518 -1.7133,4.3566 -5.4825,9.1539 -2.4965,3.1818 -9.007,9.1539 -6.5105,5.972 -8.2728,7.9301 -1.7133,1.958 -2.7902,3.8182 z"
         id="path230" />
      <path
         d="m 1476.1,174.3 q 10.427,0 16.301,7.4406 7.0001,8.8112 7.0001,29.224 0,20.364 -7.049,29.273 -5.8252,7.3427 -16.252,7.3427 -10.476,0 -16.888,-8.028 -6.4126,-8.077 -6.4126,-28.734 0,-20.266 7.049,-29.175 5.8252,-7.3427 16.252,-7.3427 z m 0,11.406 q -2.4965,0 -4.4546,1.6154 -1.958,1.5664 -3.0349,5.6783 -1.4196,5.3357 -1.4196,17.965 0,12.629 1.2727,17.378 1.2727,4.6993 3.1818,6.2658 1.9581,1.5664 4.4546,1.5664 2.4965,0 4.4546,-1.5664 1.958,-1.6154 3.0349,-5.7273 1.4196,-5.2867 1.4196,-17.916 0,-12.629 -1.2727,-17.329 -1.2727,-4.7483 -3.2308,-6.3147 -1.9091,-1.6154 -4.4056,-1.6154 z"
         id="path232" />
      <path
         d="m 1555.1,233.58 v 12.776 h -48.217 q 0.7833,-7.2448 4.6993,-13.706 3.9161,-6.5105 15.469,-17.231 9.3007,-8.6644 11.406,-11.748 2.8392,-4.2588 2.8392,-8.4196 0,-4.6014 -2.4965,-7.049 -2.4476,-2.4965 -6.8042,-2.4965 -4.3077,0 -6.8532,2.5944 -2.5454,2.5944 -2.9371,8.6154 l -13.706,-1.3706 q 1.2238,-11.357 7.6854,-16.301 6.4615,-4.9441 16.154,-4.9441 10.622,0 16.692,5.7273 6.0699,5.7273 6.0699,14.245 0,4.8462 -1.7622,9.2518 -1.7133,4.3566 -5.4825,9.1539 -2.4965,3.1818 -9.0071,9.1539 -6.5105,5.972 -8.2727,7.9301 -1.7133,1.958 -2.7902,3.8182 z"
         id="path234" />
      <path
         d="m 1563.9,227.31 13.315,-1.6154 q 0.6363,5.0909 3.4265,7.7832 2.7903,2.6923 6.7553,2.6923 4.2588,0 7.1469,-3.2308 2.937,-3.2308 2.937,-8.7133 0,-5.1888 -2.7902,-8.2238 -2.7902,-3.035 -6.8042,-3.035 -2.6433,0 -6.3147,1.028 l 1.5175,-11.21 q 5.5804,0.14685 8.5175,-2.3986 2.9371,-2.5944 2.9371,-6.8532 0,-3.6224 -2.1539,-5.7762 -2.1538,-2.1538 -5.7273,-2.1538 -3.5244,0 -6.021,2.4476 -2.4965,2.4476 -3.0349,7.1469 l -12.678,-2.1538 q 1.3217,-6.5105 3.9651,-10.378 2.6923,-3.9161 7.4405,-6.1189 4.7973,-2.2518 10.72,-2.2518 10.133,0 16.252,6.4616 5.042,5.2867 5.042,11.944 0,9.4476 -10.329,15.077 6.1679,1.3217 9.8392,5.9231 3.7203,4.6014 3.7203,11.112 0,9.4476 -6.9021,16.105 -6.9021,6.6574 -17.182,6.6574 -9.7413,0 -16.154,-5.5804 -6.4126,-5.6294 -7.4406,-14.685 z"
         id="path236" />
    </g>
    <path
       d="M 112.04,122.74 C 117.52,121.39 129.77,122 136,122 h 235 c 10.15,0.14 10.99,3.94 11,13 v 153 c -0.02,3.4 0.18,6.96 -2.43,9.57 -2.79,2.79 -6.95,2.42 -10.57,2.43 H 118 c -10.15,-0.14 -10.99,-3.94 -11,-13 V 133 c 0.08,-5.32 0.21,-7.44 5.04,-10.26 z"
       fill="#ffffff"
       stroke-miterlimit="0"
       stroke-width="1.008"
       id="path240" />
    <g
       transform="matrix(0.70962,0,0,0.88121,51.155,44.134)"
       fill="#0000ff"
       stroke-width="3.7885"
       aria-label="JUL"
       id="g248">
      <path
         d="m 180.49,134.13 h 21.828 v 68.667 q 0,13.467 -2.3678,20.718 -3.1817,9.4712 -11.543,15.243 -8.3613,5.6976 -22.05,5.6976 -16.057,0 -24.714,-8.9533 -8.6573,-9.0273 -8.7313,-26.416 l 20.644,-2.3678 q 0.36997,9.3233 2.7378,13.171 3.5517,5.8455 10.803,5.8455 7.3254,0 10.359,-4.1437 3.0338,-4.2177 3.0338,-17.389 z"
         id="path242" />
      <path
         d="m 225.48,134.13 h 21.902 v 58.751 q 0,13.985 0.81394,18.129 1.4059,6.6595 6.6595,10.729 5.3276,3.9957 14.503,3.9957 9.3233,0 14.059,-3.7737 4.7356,-3.8477 5.6976,-9.3973 0.96192,-5.5496 0.96192,-18.425 v -60.009 h 21.902 v 56.975 q 0,19.534 -1.7759,27.6 -1.7759,8.066 -6.5855,13.615 -4.7356,5.5496 -12.727,8.8793 -7.9914,3.2557 -20.866,3.2557 -15.539,0 -23.604,-3.5517 -7.9914,-3.6257 -12.653,-9.3233 -4.6616,-5.7715 -6.1415,-12.061 -2.1458,-9.3233 -2.1458,-27.526 z"
         id="path244" />
      <path
         d="M 335.65,242.6 V 135.01 h 21.902 v 89.311 h 54.46 v 18.277 z"
         id="path246" />
    </g>
    <g
       aria-label="UPDATE"
       id="text479"
       style="font-size:144px;line-height:1.05;font-family:'Arial Rounded MT Bold';-inkscape-font-specification:'Arial Rounded MT Bold, ';letter-spacing:-4.245px;fill:#ffff00;fill-opacity:1;stroke-width:1.5"
       transform="matrix(2.8651356,0,0,2.8651356,-727.07659,-780.54151)">
      <path
         d="m 285.6825,465.59399 v -49.57031 q 0,-6.32812 2.8125,-9.49219 2.88281,-3.16406 7.52343,-3.16406 4.85157,0 7.66407,3.16406 2.88281,3.16407 2.88281,9.49219 v 50.69531 q 0,8.64844 1.89844,14.48438 1.96875,5.76562 6.89062,9 4.92188,3.16406 13.78125,3.16406 12.23438,0 17.29688,-6.46875 5.0625,-6.53906 5.0625,-19.75781 v -51.11719 q 0,-6.39844 2.8125,-9.49219 2.8125,-3.16406 7.52343,-3.16406 4.71094,0 7.59375,3.16406 2.95313,3.09375 2.95313,9.49219 v 49.57031 q 0,12.09375 -2.39063,20.17969 -2.32031,8.08594 -8.85937,14.20313 -5.625,5.20312 -13.07813,7.59375 -7.45312,2.39062 -17.4375,2.39062 -11.88281,0 -20.46093,-2.53125 -8.57813,-2.60156 -13.99219,-7.94531 -5.41406,-5.41406 -7.94531,-13.78125 -2.53125,-8.4375 -2.53125,-20.10938 z"
         id="path531"
         style="fill:#ffff00;fill-opacity:1" />
      <path
         d="m 430.71093,468.05493 h -19.125 v 29.17969 q 0,6.25781 -2.95313,9.49219 -2.95312,3.23437 -7.45312,3.23437 -4.71094,0 -7.59375,-3.16406 -2.88281,-3.23438 -2.88281,-9.42188 v -79.45312 q 0,-6.89063 3.16406,-9.84375 3.16406,-2.95313 10.05469,-2.95313 h 26.78906 q 11.88281,0 18.28125,1.82813 6.32812,1.75781 10.89844,5.83594 4.64062,4.07812 7.03125,9.98437 2.39062,5.90625 2.39062,13.28906 0,15.75 -9.70312,23.90625 -9.70313,8.08594 -28.89844,8.08594 z m -5.0625,-47.25 h -14.0625 v 31.5 h 14.0625 q 7.38281,0 12.30469,-1.54687 4.99218,-1.54688 7.59375,-5.0625 2.60156,-3.51563 2.60156,-9.21094 0,-6.82031 -4.00781,-11.10938 -4.5,-4.57031 -18.49219,-4.57031 z"
         id="path533"
         style="fill:#ffff00;fill-opacity:1" />
      <path
         d="m 495.44249,405.12524 h 27.21094 q 10.61718,0 18.21093,1.96875 7.59375,1.96875 13.78125,7.38282 16.10157,13.78125 16.10157,41.90625 0,9.28125 -1.61719,16.94531 -1.61719,7.66406 -4.99219,13.85156 -3.375,6.11719 -8.64844,10.96875 -4.14843,3.72656 -9.07031,5.97656 -4.92187,2.25 -10.61719,3.16407 -5.625,0.91406 -12.72656,0.91406 h -27.21094 q -5.69531,0 -8.57812,-1.6875 -2.88281,-1.75781 -3.79688,-4.85156 -0.84375,-3.16407 -0.84375,-8.15625 v -75.58594 q 0,-6.75 3.02344,-9.77344 3.02344,-3.02344 9.77344,-3.02344 z m 8.08594,16.52344 v 69.96094 h 15.82031 q 5.20312,0 8.15625,-0.28125 2.95312,-0.28125 6.11719,-1.40625 3.16406,-1.125 5.48437,-3.16406 10.47656,-8.85938 10.47656,-30.51563 0,-15.25781 -4.64062,-22.85156 -4.57031,-7.59375 -11.32031,-9.63281 -6.75,-2.10938 -16.3125,-2.10938 z"
         id="path535"
         style="fill:#ffff00;fill-opacity:1" />
      <path
         d="m 645.32251,496.53149 -4.92188,-12.9375 h -41.90625 l -4.92187,13.21875 q -2.88281,7.73438 -4.92188,10.47657 -2.03906,2.67187 -6.67968,2.67187 -3.9375,0 -6.96094,-2.88281 -3.02344,-2.88281 -3.02344,-6.53906 0,-2.10938 0.70313,-4.35938 0.70312,-2.25 2.32031,-6.25781 l 26.36719,-66.9375 q 1.125,-2.88281 2.67187,-6.89063 1.61719,-4.07812 3.375,-6.75 1.82813,-2.67187 4.71094,-4.28906 2.95312,-1.6875 7.24219,-1.6875 4.35937,0 7.24218,1.6875 2.95313,1.61719 4.71094,4.21875 1.82813,2.60156 3.02344,5.625 1.26562,2.95313 3.16406,7.94531 l 26.92969,66.51563 q 3.16406,7.59375 3.16406,11.03906 0,3.58594 -3.02344,6.60938 -2.95312,2.95312 -7.17187,2.95312 -2.46094,0 -4.21875,-0.91406 -1.75781,-0.84375 -2.95313,-2.32031 -1.19531,-1.54688 -2.60156,-4.64063 -1.33594,-3.16406 -2.32031,-5.55469 z m -41.34375,-28.61718 h 30.79687 l -15.53906,-42.53907 z"
         id="path537"
         style="fill:#ffff00;fill-opacity:1" />
      <path
         d="m 732.97592,422.35181 h -22.78125 v 74.88281 q 0,6.46875 -2.88281,9.63281 -2.88281,3.09375 -7.45313,3.09375 -4.64062,0 -7.59375,-3.16406 -2.88281,-3.16406 -2.88281,-9.5625 v -74.88281 h -22.78125 q -5.34375,0 -7.94531,-2.32032 -2.60156,-2.39062 -2.60156,-6.25781 0,-4.00781 2.67187,-6.32812 2.74219,-2.32032 7.875,-2.32032 h 66.375 q 5.41406,0 8.01563,2.39063 2.67187,2.39062 2.67187,6.25781 0,3.86719 -2.67187,6.25781 -2.67188,2.32032 -8.01563,2.32032 z"
         id="path539"
         style="fill:#ffff00;fill-opacity:1" />
      <path
         d="m 819.7153,421.22681 h -47.03906 v 25.3125 h 43.3125 q 4.78125,0 7.10156,2.17968 2.39063,2.10938 2.39063,5.625 0,3.51563 -2.32032,5.76563 -2.32031,2.17969 -7.17187,2.17969 h -43.3125 v 29.32031 h 48.65625 q 4.92187,0 7.38281,2.32031 2.53125,2.25 2.53125,6.04688 0,3.65625 -2.53125,5.97656 -2.46094,2.25 -7.38281,2.25 H 764.5903 q -6.82031,0 -9.84375,-3.02344 -2.95312,-3.02344 -2.95312,-9.77344 v -77.48437 q 0,-4.5 1.33593,-7.3125 1.33594,-2.88281 4.14844,-4.14844 2.88281,-1.33594 7.3125,-1.33594 h 55.125 q 4.99219,0 7.38281,2.25 2.46094,2.17969 2.46094,5.76563 0,3.65625 -2.46094,5.90625 -2.39062,2.17969 -7.38281,2.17969 z"
         id="path541"
         style="fill:#ffff00;fill-opacity:1" />
    </g>
  </g>
</svg>
