<svg width="2.0149in" height="1.7571in" version="1.1" viewBox="0 0 604.46 527.14" xmlns="http://www.w3.org/2000/svg">
	<path id="Yellow" d="m299.09 55.057s-250.31 430.77-250.31 430.77l501.97-2.69s-251.66-428.08-251.66-428.08z" fill="#fff000" stroke="#fff000" stroke-width=".9"/>
	<g stroke="#000">
		<path id="Car" d="m252.39 257.74c-4.72-1.35-15.39-6.4-17.26-11.09-2.09-5.28 4.45-14.31 7.11-18.91 1.13-1.96 2.74-4.89 4.53-6.26 5.53-4.27 16.09 1.53 22.62 0.85 4.07-0.43 16.76-7.64 21-10.01 3.33-1.87 7-4.29 11-3.87 3.93 0.42 12.24 5.71 16 7.87l30 17.27c3.86 2.22 12.45 6.67 14.55 10.33 4.54 7.94 0.95 28.45 9.51 36.64l25.94 18.6c3.68 2.63 9.47 5.93 10.53 10.58 0.95 4.18-2.69 11.07-4.38 15-1.14 2.66-3.14 7.79-4.8 9.89-3.84 4.88-7.47 4.06-12.35 1.44-1.55-0.84-4.56-3.1-6.32-2.69-1.7 0.39-3.15 2.94-4.28 4.18-2.14 2.36-4.29 3.81-7.4 4.62-8.4 2.2-17.41-2.61-18.94-11.44-1.1-6.33 0.57-9.37 2.94-15l-53-29.85-16.98-9.48c-4.7-1.51-4.98 2.46-9.12 5.48-4.74 3.44-11.77 3.75-16.86 0.93-5.55-3.07-8.82-9.81-7.5-16.08l3.46-9zm66-26-18-8.57-16 6.57c0.85 1.61 0.86 2.04 2.29 3.39 3.58 3.39 19.85 12.19 24.71 13.61l7-15zm34 39c-0.04-3.88-1.07-16.7-3.01-19.61-2.27-3.42-14.83-9.55-18.99-10.39l-7 14 29 16z" stroke-width=".9"/>
		<path d="m245.17 427.93s28.954 10.324 44.215 10.282c13.394-0.037 25.347-9.0062 38.738-9.2372 14.191-0.24483 27.277 8.4919 41.47 8.3652 12.773-0.11399 24.361-8.294 37.134-8.1927 13.94 0.11053 26.391 9.7706 40.33 9.5821 13.197-0.1784 24.641-10.351 37.836-10.1 14.352 0.2736 15.941 12.715 40.555 12.543" fill="none" stroke-width="24.657"/>
		<path d="m252.89 383.48s27 10.45 41.231 10.408c12.49-0.0374 23.636-9.1164 36.124-9.3503 13.233-0.24783 25.436 8.5958 38.671 8.4676 11.911-0.11538 22.716-8.3956 34.628-8.293 12.999 0.11188 24.61 9.8902 37.608 9.6995 12.306-0.1806 22.978-10.478 35.282-10.223 13.384 0.27695 14.865 12.871 37.818 12.697" fill="none" stroke-width="23.955"/>
		<path id="Cliff" d="m263.14 285.74h-93.352l-107.66 193.03 201.3 0.71z" stroke-width=".9"/>
	</g>
	<path id="Triangle" d="m299.09 25.497-273.59 475.55 553.46 0.59528z" fill="none" stroke="#e00000" stroke-linejoin="round" stroke-width="51"/>
</svg>
