<svg width="364.8" height="196.8" version="1.1" viewBox="0 0 1140 615" xmlns="http://www.w3.org/2000/svg">
	<path id="Unnamed" d="m36.342 389.26s-14.54-17.45 4.55-38.18c0 0 30.18-36.73 61.45-51.27 0 0 31.46-19.64 49.64-24.73 0 0 114.3-41.432 123.45-39.63s12.396 12.098 19.759 10.713c8.9538-1.684 8.3172-6.9235 17.654-20.867 9.3363-13.943 132.59-44.756 132.59-44.756s314.44-98.897 322.41-102.68 4.1647-12.029 13.648-16.744 17.506 3.3104 28.243 1.7891 36.98-17.82 80.98-18.73l150.18-8.36 42.18-1.27s38.54-3.82 21.45 31.27l-27.81 102.54s-7.64 26.73-15.82 40.37c0 0-22.632 47.578-29.82 58.18-0.101 0.14899-6.36 14-15.46 26.18l-46.36 62.91c-14.48 19.705-22.274 28.613-38.36 33.82l-15.28 4.91s-6.54 4-2.9 14.54l17.27 42.91s3.09 8.91-7.46 9.09l-90.54 22.19s-16 4.18-28.73 9.81l-33.09 17.64-27.67 13s-17.66 10.33-25.66 16.33c0 0-13.67 10-22 13.67 0 0-21.67 9.45-34.49-5.55l-14.82-13s-4.54-6.18-21.18-5.9l-17.45 0.9s-5.46-0.45-14.09 6.64l-14.28 14.18s-7.81 6.73-16.81 6.37c0 0-16 1.91-26.64-13.46l-5-5.18s-5.73-5.18-14.09-5.55l-28.91 4.64s-7.46 0.64-12.36 0.27l-7 0.19s-8-1.28-13.19-1.64c0 0-4.91 0.18-16.54 3.18l-67.64 18.18s-7.93 1.73-9.93 7.98c0 0-2 3-6.75 4.63l-10.62 1.74s-5.63 0.26-6.13 3.88c0 0-0.63 3.88-7.37 4.25l-94.38-3.75s-67.91-3.64-75-34.55l-7.82-13.27s-2.18-3.09-8.36-1.45c0 0-7.82 3.45-12-4.73l-10-17.09s-4.18-7.46-15.46-16.55c0 0-20.54-12-18.91-37.27 0 0 4.37-24.36-19.45-24.73 0 0-8.36 0.91-14.73-8.18 0 0-12-16.54-15.45-26.18z" fill="none" stroke="#00f" stroke-width="15"/>
</svg>
