<svg width="12in" height="4in" version="1.1" viewBox="0 0 3600 1200" xmlns="http://www.w3.org/2000/svg">
	<path id="Track" d="m556 1110s2458.3-0.799 2458.3-0.799 491.2-7.0507 500.6-327.86c0 0 35.253-139.84-239.72-356.06l-564.05-327.86s-42.304-23.502-92.834 12.926l-217.4 139.84s-49.355 35.253-70.507 78.732c0 0-157.46 278.5-157.46 278.5s-9.4009 47.004-115.16 37.604c0 0-540.55-75.207-540.55-75.207s-192.72-4.7004-192.72-4.7004-104.58 1.1751-240.9 69.332l-311.4 166.87s-116.34 42.304-132.79-65.806c0 0-8.2258-68.156 72.857-102.23l346.66-180.97s50.53-27.028 51.705-83.433l-1.1751-52.88s-12.926-39.954-69.332-48.18c0 0-619.28-81.083-619.28-81.083s-32.903-3.5253-58.756-14.101c0 0-49.355-28.203-85.783 23.502l-168.04 279.68s-23.502 44.654-24.677 163.34c0 0-8.2258 401.89 418.34 468.87z" fill="none" stroke="#00f" stroke-width="45"/>
</svg>
