<svg width="1.24in" height=".92in" version="1.1" viewBox="0 0 372 276" xmlns="http://www.w3.org/2000/svg">
	<path id="Track" d="m286.96 15.627c20.073-0.6944 44.971 0.57343 55.671 20.644 16.264 31.11 13.187 67.129 15.329 101.15-1.7466 15.873-0.32785 31.863-2.0828 47.734 1.1199 11.696-4.716 26.199-17.978 27.194-15.631 2.2494-24.5-14.115-23.081-27.773-1.6951-18.782-1.0594-37.772-4.027-56.403-4.3224-16.209-10.002-32.777-19.71-46.533-11.632-11.482-27.459-2.469-40.899 0.0374-29.828 7.0636-59.522 15.537-86.631 30.202-25.741 12.699-55.009 27.584-65.037 56.604-6.4261 20.591 2.2364 44.769-11.45 63.295-9.0925 13.617-21.255 30.847-39.944 28.536-21.696-2.2219-34.609-25.986-32.942-46.21-0.74527-28.893 11.922-57.243 30.325-79.035 27.365-29.727 64.944-46.801 100.45-64.657 39.407-17.454 77.075-39.544 118.76-51.288 7.6222-1.9324 15.515-2.2012 23.245-3.4939z" fill="none" stroke="#00f" stroke-width="9"/>
</svg>
