<svg width="1.9in" height="2.1in" version="1.1" viewBox="0 0 570.01 629.99" xmlns="http://www.w3.org/2000/svg"><path id="Selection" d="m304 31.658c22.268-1.9059 49.606 0.13015 60.869 22.824 19.816 40.403 13.779 87.368 13.486 130.93 8.4751 25.361-18.125 63.947-40.706 34.665-7.6728-18.017-3.5146-38.289-5.9687-57.378-2.3924-24.05-8.1168-51.796-27.68-67.662-16.851-2.9746-33.391 5.4746-50 8.26-42.214 11.077-81.467 31.748-117.82 55.495-23.655 13.552-30.306 58.13 2.7311 64.272 52.614 17.035 109.33 21.567 158.27 49.05 67.543 33.223 136.17 64.362 202.79 99.399 26.212 11.789 45.105 39.935 39.009 69.205-9.0369 39.342-25.34 76.611-38.986 114.52-7.3524 15.715-10.987 38.66-32.518 39.887-23.268 2.3268-46.987 4.892-70.314 3.2396-29.522-9.1342-60.349-18.881-85.422-37.468-14.552-15.015-31.881-29.218-40.778-48.44-4.2696-45.722 15.819-89.22 19.925-134.17-1.7444-22.614-28.5-24.097-45.062-31.909-63.74-24.004-128.57-45.176-191.75-70.614-31.316-16.221-27.207-59.418-15.601-87.278 21.224-56.433 80.788-81.22 130.95-105.96 39.325-16.628 76.254-40.299 118.38-49.06 5.3935-0.66728 10.837-0.89304 16.2-1.8109z" fill="none" stroke="#00f" stroke-width="15"/></svg>
