<svg width="890" height="1284.3" version="1.1" viewBox="0 0 2781.2 4013.4" xmlns="http://www.w3.org/2000/svg">
	<path id="Track" d="m2075.3 1764.4-1254.4 1990.3s-33.387 80.648-137.1 79.444c-103.64-1.1404-143.94-100.16-148.56-140.52-4.6248-40.292 4.6247-73.679 62.212-157.81 57.588-84.069 138.24-209.63 138.24-209.63s61.009-126.71-73.742-208.49c-134.75-81.788-182.01-148.56-222.3-238.4-40.356-89.834-246.51-571.31-246.51-571.31s-27.622-79.508-24.201-152.05c3.4844-72.602 36.871-216.6 211.98-304.09 175.04-87.553 1247.4-632.39 1247.4-632.39l411.22-218.88s96.803-87.553-40.292-131.33c-137.1-43.713-324.81-73.679-324.81-73.679s-71.462-29.966-162.44 41.433c-51.822 44.917-92.115 74.883-92.115 74.883s-27.685 27.685-109.47 26.481c-81.788-1.1404-238.4-101.36-213.05-248.79 6.9054-44.917 9.1861-90.974 77.164-145.14 67.977-54.103 327.28-295.45 401.09-329s113.09-36.808 158.7-14.248c61.072 47.198 298.33 238.46 298.33 238.46s41.496 40.292 92.178-13.874c28.762-31.043 48.338-51.822 48.338-51.822s18.436-27.622 73.742 8.1091c55.307 35.668 173.97 111.69 173.97 111.69s317.52 161.49 137.98 512.02c-61.199 99.274-483.57 758.65-483.57 758.65z" fill="none" stroke="#00f" stroke-width="95.029"/>
</svg>
