<svg width="2.6in" height="3in" version="1.1" viewBox="0 0 780 900" xmlns="http://www.w3.org/2000/svg"><path id="Selection" d="m484.58 41.198c-64.216 33.616-123.94 75.138-185.82 112.83-70.683 41.79-141.35 92.57-176.22 169.59-19.363 44.405-36.979 91.584-39.604 140.27-0.78954 30.044 12.151 84.847 53 69.862 32.656-14.033 49.813-50.427 85.966-58.79 30.088-32.121 54.435-69.429 82.551-103.37 32.543-35.045 48.891 22.658 23.949 44.496-32.414 56.758-73.884 107.78-111.8 160.93-35.595 39.089-18.276 94.554-13.465 141.18 20.256 36.049-19.654 103.19-51.277 50.637-11.349-48.759-14.941-99.21-23.727-148.58-3.1168-19.371-5.4726-53.989-34.662-42.209-42.89 8.9942-64.347 45.97-63.523 88.096-17.756 92.31 46.902 191.45 139.71 209.24 72.431 18.191 149.73-16.132 193.38-74.893 69.477-90.337 134.89-183.77 202.7-275.38 33.223-29.046-1.3673-77.69 39.197-104.01 25.39-1.1312 39.073-24.147 57.109-38.629 51.597-48.878 93.049-116.62 90.891-189.82-1.781-98.043-95.377-179.11-192-172.58-26.473 2.1937-52.295 10.044-76.357 21.124z" fill="none" stroke="#00f" stroke-width="15"/></svg>
