<svg version="1.1" viewBox="0 0 370 700" xmlns="http://www.w3.org/2000/svg"><path id="Selection" d="m251.02 30.156c35.102-5.9221 74.464 11.289 87.064 46.053 8.419 20.784 5.8992 43.164 1.0182 64.375-18.271 93.828-40.496 186.85-60.605 280.3-11.105 47.942-20.391 96.344-33.163 143.87-10.956 18.896-43.704 3.4603-56.999-5.8407-2.5158-20.485 6.3294-40.479 9.5625-60.633 23.668-107.39 47.087-214.85 71.263-322.12 0.447-24.456-20.99-43.704-33.412-63.53-12.642-13.842-34.175-12.321-51.202-10.395-16.738 10.82-43.897 28.321-36.63 52.141 11.758 48.072 20.679 97.404 43.406 141.86 13.502 20.871 1.1015 43.447-17.514 55.576-14.241 14.912-33.608 26.336-41.748 45.923-3.8388 23.74 9.771 45.612 15.756 68.024 6.3408 18.321 15.264 38.202 5.5414 57.277-11.81 22.643-22.648 45.936-25.855 71.596-6.9604 23.132-11.302 47.414-22.222 69.056-26.768 26.491-36.415-25.586-37.954-44.783-9.7243-60.719-22.482-120.87-34.544-181.14-5.4749-40.267-10.388-81.52-1.396-121.69 6.9718-42.388 12.513-85.004 19.853-127.33 16.476-18.888 63.868-18.872 46.444-56.16-11.629-27.531 14.927-41.4 36.162-50.251 34.176-16.331 66.091-37.951 102.46-49.144 4.8432-1.2789 9.7572-2.288 14.71-3.0354z" fill="none" stroke="#00f" stroke-width="15"/></svg>
