<svg version="1.1" viewBox="0 0 370 700" xmlns="http://www.w3.org/2000/svg">
	<path id="Selection" d="m251.02 30.156-4e-3 -0.0011c-4.9528 0.7474-9.8668 1.7565-14.71 3.0354-36.369 11.193-68.284 32.813-102.46 49.144-21.235 8.851-47.791 22.72-36.162 50.251 17.424 37.288-29.968 37.272-46.444 56.16-7.34 42.326-12.881 84.942-19.853 127.33-8.992 40.17-4.0789 81.423 1.396 121.69 12.062 60.27 24.82 120.42 34.544 181.14 1.539 19.197 11.186 71.274 37.954 44.783 10.92-21.642 15.262-45.924 22.222-69.056 3.207-25.66 14.045-48.953 25.855-71.596 9.7226-19.075 0.7994-38.956-5.5414-57.277-5.985-22.412-19.595-44.284-15.756-68.024 8.14-19.587 27.507-31.011 41.748-45.923 18.616-12.129 31.016-34.705 17.514-55.576-22.727-44.456-31.648-93.788-43.406-141.86-7.267-23.82 19.892-41.321 36.63-52.141 17.027-1.926 38.56-3.447 51.202 10.395 12.422 19.826 33.859 39.074 33.412 63.53-24.176 107.27-47.595 214.73-71.263 322.12-3.2331 20.154-12.078 40.148-9.5625 60.633 13.295 9.301 46.043 24.737 56.999 5.8407 12.772-47.526 22.058-95.928 33.163-143.87 20.109-93.45 42.334-186.47 60.605-280.3 4.881-21.211 7.4008-43.591-1.0182-64.375-12.6-34.764-51.962-51.975-87.064-46.053z" fill="none" stroke="#00f" stroke-width="15"/>
</svg>
