<svg width="1100" height="1282.4" version="1.1" viewBox="0 0 3437.5 4007.5" xmlns="http://www.w3.org/2000/svg">
	<path id="Unnamed" d="m3083.1 1132.3-326.08 1116s-29.489 81.176-37.59 159.27c-8.1013 78.097-41.236 143.64-119.98 140.64-78.826-2.9165-120.79-58.168-121.52-118.52 3.6456-58.978 8.8305-85.47 8.8305-85.47s-12.557-67.728-71.454-66.269c-58.897 1.4583-104.59 44.882-114.15 146.55 2.1873 103.86 20.577 110.5 26.492 142.91 5.914 32.406 89.844 293.84 89.844 293.84s31.676 50.796 39.778 73.642c6.6432 26.492 36.861 161.3-96.487 164.21-133.27 2.9975-128.89-127.35-128.89-127.35l-1.4582-89.925s-20.659-72.912-63.353-95.677c-42.694-22.846-76.558-18.471-104.59 11.747-27.95 30.218-69.186 86.928-145.1 107.51-75.829 20.658-452.95 125.25-452.95 125.25s-290.84 79.556-447.03 259.24c-156.11 179.69-371.21 418.27-371.21 418.27s-100.13 129.62-238.59 134.08c-138.45 4.4558-260.7-117.88-260.7-253.33 0-135.54 123.71-203.26 231.21-250.41 107.59-47.15 195.97-86.928 222.46-100.21 122.25-72.102 465.42-321.06 568.55-748.24 72.183-335.8 132.54-568.55 132.54-568.55s54.522-256.33 362.37-307.85c307.85-51.525 502.29-215.09 615.7-419.81 113.42-204.72 181.15-350.55 181.15-350.55s78.097-131.08 154.74-207.72c76.558-76.558 123.71-129.62 123.71-129.62s44.152-45.611 69.186-157.57c20.658-55.98 85.47-213.63 276.99-178.23 191.44 35.322 189.98 100.13 204.72 184.06-5.914 48.608-7.3722 76.639-66.269 166.48-58.978 89.844-70.725 195.89-70.725 195.89s-20.658 159.11-48.608 318.14c-5.914 29.489-21.55 97.622-21.55 97.622z" fill="none" stroke="#00f" stroke-width="72.912"/>
</svg>
