<svg width="2.7in" height="2.75in" version="1.1" viewBox="0 0 810 825" xmlns="http://www.w3.org/2000/svg">
	<path id="Track" d="m20.311 52.626c-2.5042-25.628 30.876-14.534 46.484-14.257 48.035 0.17922 80.285 39.364 116.54 65.297 37.726 28.66 73.751 59.784 112.65 86.73 33.441 4.2938 59.324-29.309 91.841-35.549 42.96-13.662 97.727 4.5712 111.84 50.444 15.82 31.831 0.59051 69.016-29.631 85.624-21.381 16.894-45.349 30.951-64.15 50.711-6.7604 35.853 47.592 46.445 75.893 39.848 30.021-3.1977 60.113-10.126 90.286-8.9947 37.351 13.119 72.225 33.213 107.07 51.986 40.659 30.246 63.926 77.111 94.53 116.61 17.128 15.994 31.178 49.503-7.6026 41.709-30.013 13.52 9.2835 54.625-20.575 75.595-11.04 30.322-62.101 65.706-76.087 18.608-10.786-42.633-72.421-64.269-97.721-21.922 10.001 37.18 65.324 51.546 68.093 95.565 10.95 38.385-36.096 52.153-50.222 18.73-185.82-233.17-371.77-466.25-558.93-698.34-4.2301-5.6145-8.3014-11.558-10.318-18.385z" fill="none" stroke="#00f" stroke-width="18"/>
</svg>
