<svg width="1.8in" height="3.5in" version="1.1" viewBox="0 0 540 1050" xmlns="http://www.w3.org/2000/svg">
	<path id="Unnamed" d="m462.86 772.84-7.11 64.59 0.18 31.46c1.3781 29.379 12.669 65.979 27.63 98 10.19 20 8.37 28.9 8.37 28.9-4.91 30.19-28.73 29.82-28.73 29.82-18.36-2-24.36-12.36-24.36-12.36l-65.82-112.18c-48.55-64.55-102.91-66.91-102.91-66.91-20.18-1.09-45.64-10.91-45.64-10.91-45.63-18.36-54.91-54.36-54.91-54.36l-10.36-31.82c-19.45-37.82-38.91-47.09-39.09-47.09s-82-53.82-82-53.82c-12.36-8.37-10.18-16.37-10.18-16.37 6.73-18.72 20.36-17.45 20.36-17.45 12-1.09 25.27 8 25.27 8 41.28 29.64 78.37 70.91 78.37 70.91 13.27 13.27 30 15.09 30 15.09l10.91 0.36c46.18-9.45 43.63-32.54 43.63-32.54l-2.91-18c-2-19.64 5.1-23.82 5.1-23.82l38-39.27c5.63-7.46 16.72-2.91 16.72-2.91l17.28 7.27c11.09 5.64 14 4.18 14 4.18 18.18-2.18 16.72-17.09 16.72-17.09 0.55-8.18-3.77-19.68-3.77-19.68-23.5-76.75-21.75-110.5-21.75-110.5l2-46.75c-15.5-52.75-51.25-20.25-51.5-20.25s-16.5 19-16.5 19c-18 24.25-37 19.5-37 19.5-32.75 2-41.42-42.17-41.42-42.17l-42.42-290.42c-3.82-21.46-3.0094-30.216-1.7482-36.207 9.64-29.82 31.189-21.641 31.189-21.641 14.117 7.0607 10.37 4.2441 19.829 12.757 6.3059 7.8824 12.73 21.45 12.73 21.45 17.64 28.73 37.64 3.46 37.64 3.46 10.36-11.28 24.18-1.82 24.18-1.82l91.27 42.54c23.82 13.28 36.36 39.64 36.36 39.64l5.09 12 20.19 57.27c15.63 37.28 36.54 49.46 36.54 49.46l42.73 35.27c27.45 24.18 27.09 61.82 27.09 61.82 0 22.91-2 42.09-2 42.09z" fill="none" stroke="#00f" stroke-width="15"/>
</svg>
