<svg width="1.1in" height="2.7in" version="1.1" viewBox="0 0 330 810" xmlns="http://www.w3.org/2000/svg"><path id="Selection" d="m219.16 22.136c34.129 4.4521 65.009 36.027 81.512 65.26 12.226 43.773 1.7744 89.245-3.3695 133.37-11.222 83.607-20.643 167.45-31.698 251.09-5.6796 51.168-14.875 102.2-15.444 153.76 0.67383 40.66 17.07 78.137 32.633 114.91 15.839 26.75-15.916 61.012-42.633 42.292-19.177-21.397-30.794-48.579-46.004-72.94-20.023-33.746-38.823-68.184-53.346-104.7-13.663-29.919-42.252-50.895-73.871-58.46-35.52-10.336-52.72-52.942-38.118-85.93 11.628-23.024-5.3396-48.131 1.5853-71.461 12.257-16.236 26.182-31.964 41.808-45.044 20.742-6.5632 62.204 29.133 63.357-11.248-10.93-44.2-26.733-88.086-23.412-134.41 3.3346-26.048-1.3282-59.926 21.803-77.561 20.355-7.0682 61.868-3.4646 56.311-36.058-8.791-24.855 0.83104-56.464 28.886-62.861z" fill="none" stroke="#00f" stroke-width="15"/></svg>
