<svg width="1.5in" height="2.25in" version="1.1" viewBox="0 0 450 675" xmlns="http://www.w3.org/2000/svg"><path id="Track" d="m212.94 23.197c-17.05 2.6299-34.146 5.4469-50.68 10.487-31.842 13.537-68.767 24.59-88.121 55.487-14.48 30.268-18.776 64.14-27.714 96.288-9.3763 46.034-28.294 92.074-18.793 139.69 16.031 68.777 34.651 136.96 51.483 205.56 9.7275 35.129 15.855 71.443 28.884 105.5 11.005 28.478 42.769 13.385 53.891-6.434 22.083-24.999 46.069 14.205 71.386 11.772 42.798 7.0991 86.592-22.856 96.085-65.223 26.089-86.188 47.231-173.8 71.186-260.6 7.8825-33.643 21.122-66.308 24.413-100.79 1.5251-29.41-34.433-26.878-54.367-32.441-28.847-7.2884-62.504-2.5354-81.758 22.274-30.861 38.252-58.327 79.169-87.737 118.56-16.523 20.106-28.228 47.5-53.806 57.207-27.721 5.0674-66.375-4.5804-72.968-36.184-3.6127-25.783-14.746-52.507-9.1542-78.354 20.71-29.052 45.565 24.805 71.568 5.7516 29.757-23.741-6.3335-53.606-23.829-71.777-17.177-20.02-29.322-47.774-26.354-74.214 21.279-27.181 41.266 21.71 58.445 33.333 19.939 25.395 60.321 30.973 85.411 9.9594 19.563-19.731 31.731-45.339 47.144-68.255 7.9316-15.59 30.327-36.849 14.555-53.571-24.252-12.874-50.984-25.653-79.17-24.017z" fill="none" stroke="#00f" stroke-width="15"/></svg>
