<svg width="1140" height="933.5" version="1.1" viewBox="0 0 3562.5 2917.2" xmlns="http://www.w3.org/2000/svg">
	<path id="Unnamed" d="m3051.8 1589.3s365.77 193.64 400.98 659.17c0 0 33.252 489-571.15 557.45 0 0-191.69 41.076-440.1-221.03 0 0-715.89-856.72-715.89-856.72s-115.4-166.26-422.49-166.26c0 0-144.74 3.912-144.74 3.912s-289.49 54.768-518.33-318.82c0 0-510.51-811.73-510.51-811.73s-113.45-291.44 199.51-324.69c0 0 33.252-13.692 156.48 52.811l215.16 109.53s105.62 66.503 156.48 201.47c0 0 54.767 142.79 199.51 144.74 0 0 107.58-21.516 109.53-21.516s91.931-33.252 215.16 46.944z" fill="none" stroke="#00f" stroke-width="93.9"/>
</svg>
