<svg width="2.3in" height="1.95in" version="1.1" viewBox="0 0 690 585" xmlns="http://www.w3.org/2000/svg">
	<path id="Track" d="m130.02 117.12s45.5-74 45.5-74 29.5-39 62-6.5l33.5 41.5s31 38-21 57c0 0-54 21.5-58 82l8 130.5s-4.5 45.5 51.5 43c0 0 53.5 3.5 90-32l255.5-190.5s17.75-11.5-6.5-35.25l-9-12s-8.25-16.25 1.25-23.5c0 0 8.25-12 26-1l43.25 26.5s25.5 16 11.5 45.5c0 0-43.5 67.25-43.75 67.25s-13 21.25-39 37.75c0 0-36.5 20-38 52.5 0 0-8 42.75-53.75 63l-436.5 170.25s-47.38 14.38-23.25-32.25l79.58-127.08s22.67-24 6.67-78.34c0 0-28.33-62.33-28.33-62.33s-12-24.33 3.66-59.33l39.17-82.67z" fill="none" stroke="#00f" stroke-width="12"/>
</svg>
