<svg width="1.3in" height="1.35in" version="1.1" viewBox="0 0 390 405" xmlns="http://www.w3.org/2000/svg"><path id="Selection" d="m189 15.069c19.149-0.83041 25.507 19.919 34.034 33.251 39.437 68.844 77.055 138.72 115.57 208.08 17.519 32.204 35.655 67.707 29.047 105.6-0.3448 16.281-14.394 32.213-31.676 26.978-29.932-6.6376-63.564-22.092-72.755-53.989-15.313-43.254-31.372-86.259-47.687-129.14-8.3902-25.836-40.957-34.876-64.106-23.827-21.086 12.243-48.909 13.425-68.766-2.022-11.61-9.7938-26.702-14.499-41.722-11.887-24.392 7.0959-24.609-22.208-10.454-34.116 14.341-25.483 40.488-44.713 70.256-45.998 25.499-2.5374 38.682-27.606 54.151-44.797 9.6002-11.073 18.14-25.973 34.109-28.129z" fill="none" stroke="#00f" stroke-width="10.5"/></svg>
