<svg width="1.75in" height="2.1in" version="1.1" viewBox="0 0 525 630" xmlns="http://www.w3.org/2000/svg"><path id="Track" d="m194.84 21.201-2e-3 -0.0034c-3.5226 1.8939-6.3124 4.8454-8.8877 7.8386-37.394 53.25-78.02 104.26-114.1 158.42-16.371 37.507-39.152 72.881-47.381 113.35-1.6962 36.034-0.1498 72.159 1.6011 108.16-6.581 35.585 56.572 34.323 47.572-0.93329-7.9997-28.058-15.213-57.347-10.237-86.738 3.685-18.953 3.691-51.142 30.262-50.628 29.616 4.496 58.548 13.071 87.844 19.481 22.361 4.792 53.553 9.915 56.276 37.837 2.084 33.642 8.0236 67.37 5.0482 101.09-9.144 49.604-27.754 97.168-37.054 146.67-0.793 23.977 25.4 35.286 46.027 32.718 43.331-3.442 85.974-13.108 129.05-19.026 22.671-4.571 46.727-5.141 67.942-14.364 16.274-21.736 28.514-47.517 34.259-74.18 5.4417-42.073 4.0853-84.554 5.3353-126.86 0.4855-27.89-1.085-56.39 10.106-82.757 12.739-25.687-21.576-18.648-29.243-33.24-6.1672-21.858-3.0511-44.63-3.4936-66.995 1.243-26.851-16.81-57.6-46.151-57.504-28.351 4.793-55.373 15.471-83.066 23.148-20.112 5.4077-47.357 20.706-60.929-4.0499-19.39-33.5-36.245-68.478-54.94-102.4-7.9933-9.933-10.478-30.117-25.838-29.034z" fill="none" stroke="#00f" stroke-width="15"/></svg>
