<svg width="570" height="980" version="1.1" viewBox="0 0 1781.2 3062.5" xmlns="http://www.w3.org/2000/svg">
	<path id="Unnamed" d="m562.29 2760.6s-78.088 186.97-215.57 175.97c0 0-217.77 8.7986-226.56-252.96l-5.4991-388.24s-12.098-240.86 223.26-391.54c0 0 74.788-39.594 73.688-148.48l4.3993-431.13s23.096-211.17 252.96-323.35c0 0 84.687-30.795 131.98-103.38 0 0 404.74-629.1 404.74-629.1s100.08-146.28 311.25-142.98c0 0 216.67 21.997 128.68 232.06 0 0-1083.3 2403.1-1083.3 2403.1z" fill="none" stroke="#00f" stroke-width="67.5"/>
</svg>
