<svg width="1.45in" height="2.65in" version="1.1" viewBox="0 0 435 795" xmlns="http://www.w3.org/2000/svg">
	<path id="Track" d="m298.25 349.76-177.34 393.33s-16.06 30.55-46.42 31.09c0 0-49.09-0.91-50.73-56.54 0 0-0.73-98.73-0.73-98.73s-0.72-43.82 52-79.46c0 0 34.73-17.27-0.54-69.09 0 0-49.27-64.18-49.46-107.27l0.19-104s-0.55-46.55 40-72.18l38.54-22.91s24.18-13.64 41.27 10.54c0 0 6.55 11.82-1.45 23.1l-11.09 18.9s-7.64 13.1 10 22.91c0 0 19.64 17.82 32.54-4.91l107.55-165.78s34-48.79 75.75-47.92c0 0 50.75-0.37 53.5 52.13 0 0 7.25 42-62.87 62.24 0 0-31.26 8.26-31.26 8.26s-36.5 7.62-51.5 36.62c0 0-52.12 78.5-52.12 78.5s-6.88 10.88-6 23c0 0 1.5 25.12 26.5 27 0 0 12.5 0 27.25-5.75 0 0 13-7.13 27-4.87 0 0 19.25 1.62 19.87 21 0 0 1.13 3.74-5.37 18.62l-5.08 12.17z" fill="none" stroke="#00f" stroke-width="15"/>
</svg>
