<svg width="440" height="270" version="1.1" viewBox="0 0 1375 843.75" xmlns="http://www.w3.org/2000/svg">
	<path id="Track" d="m369.24 735.8s-144 0.67-188.67-73.33c0 0-50-68.67-51.33-161.34l-11.33-186.66s2.06-17.94-13.94-20.85c-16-2.91-15.64-17.27-15.64-17.27s-8.09-44.55-49.34-160.8c0 0-17.25-55 47-60l126.25-11s21.5-4.25 27.5 10.75l102.25 183s11 20.25 29 39l180.75 205 54.75 64.75s11.75 15.5 21.75 10.75l26.5-2s31-0.25 48.75 23.5c0 0 13 23 35.5 21.75l176.5 19.25 378.75 39.38s43.18 1.39 43.91 51.21c0 0-0.18 76.18-107.46 86.91 0 0-103.12 5.33-175.78-1.67l-547.67-49.33z" fill="none" stroke="#00f" stroke-width="21"/>
</svg>
