<svg width="1135" height="700" version="1.1" viewBox="0 0 3546.9 2187.5" xmlns="http://www.w3.org/2000/svg">
	<path id="Track" d="m2710.5 2064.8-1417.1-131.51s-36.025 0.3114-28.472-41.683c0 0 12.276-41.994-47.185-25.487l-142.57 37.764s-30.497 5.8398-59.696 5.1909l-64.886-0.6488s-94.734-5.8398-177.79-16.87c0 0-361.42-9.733-437.33-484.7 0 0-20.764-215.42-42.825-599.55 0 0 1.8168-40.93-28.836-43.993 0 0-42.254-5.9177-43.889-38.932 0 0-0.23359-18.168-8.9803-52.169l-124.63-385.94s-29.199-126.53 118.09-142.1l351.04-30.497s36.985-11.031 61.642 37.634l261.49 465.88s13.626 27.252 57.1 82.406l491.19 558.67s136.91 159.62 136.91 159.62 15.573 29.199 46.718 30.497l75.268-5.8398s78.513-12.977 138.21 72.024c0 0 14.275 39.581 72.673 43.474l1452.7 153.31s105.25-4.0749 113.68 130.24c0 0-5.191 192.06-275.12 226.45 0 0-243.32 12.328-392.56 3.2443z" fill="none" stroke="#00f" stroke-width="58.398"/>
</svg>
