<svg width="4.5321in" height="2.5452in" version="1.1" viewBox="0 0 1359.6 763.57" xmlns="http://www.w3.org/2000/svg">
	<path id="Track" d="m88.065 513.27c3.128 6.0188 8.5434 12.1 16.116 11.754 190.49-23.946 380.7-51.859 571.14-76.813 34.135-1.1298 77.4-23.484 102.36 9.2479 17.556 36.737-2.5144 77.004-7.2292 114.79-4.418 33.205-19.748 67.185-11.877 100.41 18.833 65.541 70.013 31.842 84.456-16.079 37.352-20.684 98.921-37.565 133.22-3.2868 33.998 38.721 86.588 63.054 137.92 65.1 70.083 4.1987 106.4-66.848 144.61-113.7 28.518-37.465 5.5085-79.742-7.8647-117.31-8.4567-32.671-25.552-66.075-19.824-100.33 18.23-33.342-33.513-70.706 7.6734-94.808-2.2506-36.596 15.552-74.788 31.012-111.74-17.924-47.996 74.374-72.389 35.668-110.34-40.394-9.5321-80.498-24.758-122.29-25.153-204.83 29.904-409.11 63.828-613.75 95.057-52.254 12.287-104.39-4.2426-156.46-9.6316-50.295-20.585-68.71 28.355-102.96 52.2-71.011 12.446-142.75 21.219-213.99 32.623-27.539 0.6476-63.011 10.257-47.034 45.792 13.49 83.96 22.47 169 39.09 252.21z" fill="none" stroke="#00f" stroke-width="30"/>
</svg>
