<svg width="2.1in" height="2.05in" version="1.1" viewBox="0 0 630 615" xmlns="http://www.w3.org/2000/svg"><path id="Selection" d="m573.78 23.34c39.395-6.683 45.125 48.757 14.84 64.735-80.17 81.409-160.84 162.28-239.84 244.84-30.053 29.766-60.634 59.43-97.433 80.904-10.423 9.6254-36.765 21.537-31.087-4.8954 3.3196-28.768 28.009-49.83 30.35-78.009-4.374-34.977-43.795-34.305-70.004-27.821-22.574 5.7799-58.178 9.224-60.909 38.291 5.9146 34.388 66.402 2.0128 60.011 45.396-4.6426 39.279-11.792 78.355-18.726 117.28-8.8728 27.41-13.568 57.071-29.16 81.491-33.068 24.592-51.558-25.018-31.906-49.101 8.5871-28.861 20.21-57.051 25.869-86.579-1.496-22.902-28.734-26.698-45.441-35.887-20.75-11.427-51.653-14.775-57.561-41.779-5.4773-28.62 21.914-46.604 36.524-67.573 34.325-41.379 67.785-83.545 103.04-124.1 26.724-28.412 67.879-29.62 103.02-41.003 56.075-15.415 112.71-29.182 168.35-45.915 5.9483-13.035 1.6531-32.283 22.816-35.905 36.411-18.916 77.833-24.529 117.25-34.373z" fill="none" stroke="#00f" stroke-width="15"/></svg>
