<svg width="1200" height="980.7" version="1.1" viewBox="0 0 3750 3064.7" xmlns="http://www.w3.org/2000/svg">
	<path id="Track" d="m1977.1 2439.8-216.78 134.6s-31.46 20-56.37 48.18l-113.56 137.67s-14.62 17.97-23.53 43.97c0 0-5.27 17.82-20.73 32.91 0 0-50.18 50.55-50.18 50.55s-12.91 12.36-18.73 28.54l-6 12.55s-4.36 15.45-21.45 16c0 0-26.91-0.73-26.91-0.73s-10.91-0.55-20 6l-18.18 14.54s-16 12.55-30.36-0.72c0 0-19.64-13.82-45.28-39.09 0 0-13.63-14.19-29.45-36.73 0 0-7.27-10-19.27-20.36 0 0-12-14-28.55 4.9 0 0-5.27 8.19-17.27 32.19 0 0-17.64 42-51.46 63.09 0 0-27.45 18.36-49.09 23.82 0 0-9.27 2.9-18 4l-8.91 0.54s-18 0.36-28.54-8c0 0-28.18-15.82-48.55-24.54 0 0-24.18-16.55-83.09-19.82h-28.73s-17.45-0.73-30.91 7.27c0 0-16.36 10.55-35.27-2l-23.82-20.36s-7.81-7.09-10.54-18.55c0 0-3.09-10.36-8.91-16.18l-8-9.64s-2.18-3.82-15.09-10.91c0 0-20.18-14.72-27.27-35.27l-5.46-11.64s-5.45-10.36-19.27-11.27c0 0-39.09-3.45-61.64-7.82 0 0-36.73-2.36-38-33.81l-0.36-13.28s-2.18-20.18-20-33.09l-132.18-92.36s-33.09-24.37-47.82-40.18l-91.82-109.64s-33.82-37.64-36.73-65.45l-0.72-44.19s0.9-20.54 10.36-38.36c0 0 10.91-23.64 17.64-42.55 0 0 18.36-43.81 19.81-124l0.19-23.09s1.2-32.36-10.8-90.61l-11.25-49.25-5.75-20s-6.93-20.32-18.02-44.5c0 0-9.09-15.64-17.28-35.82 0 0-12-28.91-18.18-44.54l-14.91-38.55s-8.54-25.64-23.27-57.27c0 0-25.82-63.09-94.73-91.27 0 0-39.45-15.28-56-25.28 0 0-24-8.54-25.09-32.91 0 0 0.37-7.45 0.37-7.45s-0.73-25.09 39.45-36.36l70.36-27.1s30-11.63 51.1-27.45l20.18-15.27s25.27-22.18 38-30.37c0 0 17.63-11.45 32-26.36 0 0 60.18-61.45 60.18-61.45s18.91-19.46 29.09-27.64l15.64-13.27s26-22.91 40.18-45.46c0 0 11.09-19.09 17.27-33.82l12-27.63 9.46-20.73s5.45-10.36 6.36-25.27l1.45-66s-2.72-16.91 23.09-34.73c0 0 14.19-11.09 24-20.91 0 0 16-13.27 0.91-34.91 0 0-6.54-9.63-6.54-9.63s-15.46-22 16.91-46.73l42.91-34.91s29.86-20.16 47.11-40.91c0 0 19.75-22.75 43-44.25l54.25-53.75s25.75-27.25 44.25-50.5c0 0 25.75-33.75 25.25-64.5 0 0-0.25-12.25-3.5-30.5 0 0-7.25-24.5-14.25-53 0 0-2.75-30.5-30.5-28.75l-30.5-0.25s-11.75-0.75-22-6.5c0 0-36.25-23-62.75-44.75 0 0-32-28.5 13.75-52 0 0 42.25-19.75 77.5-46.75 0 0 11.75-9 11.75-9.25s20.5-15.25 20-39.25c0 0 1.25-22.25 8.25-32.5 0 0 30-46.75 30-46.75s32.25-46.75 92.5-23.75c0 0 42.5 23.75 98.5 64.5 0 0 19.25 14.25 19 28.25 0 0 17 41.25 40.75 2.75 0 0 9.5-24.5 46-23l93.25-7.75s19.75-2 39.75 1.75l56 13.75s27.75 7.25 35-5.5c0 0 22-32.75 22-32.75s5.75-8 6.5-30.25l-0.25-34.75s-2.75-15 20.5-25c0 0 34.75-15.75 92.25-36.5 0 0 48.75-15.75 100.5-24.75 0 0 89-10.5 116.5-35.75 0 0 41.75-33.25 69.25-50.25 0 0 56.5-44.5 70.5 35 0 0 0.5 12.5-3.25 116.25 0 0-0.75 23.25 6.25 76.75 0 0 4 33.25 29.5 71.75 0 0 20 32 61.25 58 0 0 19.75 14 35 20.5 0 0 33.25 11.5 58.75 22.5l20 9s18.75 10 47.5 10.5c0 0 54.5-2.25 92.5-0.75 0 0 61.5-1.75 192 27.25 0 0 23.75 6.5 44 13 0 0 40.75 11.75 62 34.25 0 0 34.25 29.5 62.75 41.75l45.75 22s40 27.5 107.25-13.25c0 0 68.5-38.5 104.75-73 0 0 29.75-34.25 69.5-39 0 0 42.75-6 61.75-10 0 0 17-3.25 31-4.5 0 0 15-2.5 29-8.25 0 0 25-11.25 37.25 7.5 0 0 18.75 24.75-6.25 48.5 0 0-17 18.25-38.25 32.5 0 0-9.75 7.25-22.5 17 0 0-16.5 16-27 23.5l-39.5 26.5s-29 16-14 36.75c0 0 13 15.75 29.5-4 0 0 14.25-30.5 29.5-42.25 0 0 14.5-16.75 56-30l71.5-23s20-6.5 41-6.75c0 0 23.25-0.75 42.5-15.5 0 0 56.25-38.5 77-83 0 0 8.75-9.75 3.5-35.75 0 0-6.25-22 4-44.5 0 0 19.75-37.5 38.25-52.25 0 0 17.5-22.25 57.75-0.75 0 0 31.75 15.75 70.25 24.5 0 0 59.75 5 86.25 50.25 0 0 24 41 67 40h12.75s9.75-0.75 18.75 9.5c0 0 31.25 30.25 61.75 71.5 0 0 11.5 13.75 3.5 38.5 0 0-27.75 65.5-27.75 65.5s-19.75 40.75 12 67.25l13.75 10s12.5 12.25 32 12.25c0 0 40.25-4.75 44.25 32.25l8.5 67.75s10.25 55.75-41.25 52l-96-5.5s-36.75-8.25-46.75 30.75c0 0-2.75 20-25.25 45.75 0 0-19 22-34.75 50 0 0-14.5 19-13.25 65.75 0 0 2 14.5 2 26l-0.25 100.25s1.25 16.25-6.25 28.5c0 0-26.25 28-26.25 28s-11.25 11-37.75 14c0 0-30 3.25-48.75 20.75l-47.75 47.75s-17.25 20.5-25.75 39c0 0-16.5 36-36.25 71 0 0-7.25 16.25-23 26.5 0 0-7.75 7.25-35.5 20.75 0 0-24.75 14.75-36.25 26.75 0 0-9.25 12.5-43 21.75l-60.5 13.25s-42 11.75-77.5 28c0 0-32.75 13.5-66.25 15.25 0 0-18 3.75-40-14 0 0-32-28-44.75-36 0 0-16.5-15.25-47.25-1l-79.5 54.25s-25 18.75 5.5 50.25c0 0 36 39.75 121.25 62.25 0 0 40.5 8.5 54.25 30.5 0 0 23.75 28 30 84.75 0 0 8 48.25-36 77.75 0 0-29.5 20.25-93 52.25 0 0-25.5 14.25-62.5 36.25l-161 97.5-257.25 156.75-140.25 86.25-158.17 101.42z" fill="none" stroke="#00f" stroke-width="15"/>
</svg>
