<svg width="1225" height="1155.9" version="1.1" viewBox="0 0 3828.1 3612.3" xmlns="http://www.w3.org/2000/svg">
	<path id="Unnamed" d="m1261.7 3122.7s-195 196.5-195 196.5l-72.75 53s-24 11.25-14.25-18.75 14-35.5 14-35.5l12.5-21s14.5-42.5-28.5-48.75c-43.25-3.25-80 14.5-80 14.5s-53.5 34.25 7.5 47.75c11.25 0.25 15 0.5 15 0.5s19-3.25 16.25 29.75-16.75 106.5-16.75 106.5-14.5 48.25-14.5 48.25l-10 30.25s-7.25 21-34 12c-18-11.25-10-31.25-10-31.25l32.25-101s6-19-13.25-28.75-68.5-31.5-68.5-31.5-41.5-18.5-9-60.75c17.25-21.5 130-155.25 130-155.25s13-18.25 48.25-26.5c23-6.25 234.25-63 234.25-63s11.5-2.5 15.25-20.87c3.75-18.38 23.88-27.25 34.63-29.13 10.75-1.87 74.75-16.12 74.75-16.12s21.5-4.25 21.87-27.5c0.38-23.25-16.37-35.38-16.37-35.38l-35.25-43.75s-13.38-10.37-26.13 5.5c-11.87 18-21.37 40.63-21.37 40.63s-18.38 50.87-94.13 78.87c-14.25 4.75-38.25 8.75-57.5-1.5s-64.25-45.25-150-45.75c-13.25-0.25-32.75 0.75-47 9.25-8.75 2.25-17 6.5-37.25-7.5-11.25-11.25-27-25.25-30-38.25s-15.5-23.5-15.5-23.5-28.5-20.25-35.5-32.25c-4.25-10-10.5-22.75-10.5-22.75s-1.25-11.75-24.75-14.25-61.25-7.5-61.25-7.5-33-2-34.5-35.75c-0.5-8-1-12.25-1-12.25s1.75-20.25-29.25-38c-16-12.5-131.25-91.5-131.25-91.5s-30.75-27.5-53-50.5c-14.25-17-93.25-112.75-93.25-112.75s-20.75-26.25-21-51.5-1-44-1-44 1.25-14.75 5.25-22 25.17-60.16 25.17-60.16 52.67-154.67-34-359.34c-47.33-104.66-67.33-154.66-67.33-154.66s-24.67-64-99.34-98c-40.66-18.67-63.33-27.34-63.33-27.34s-52-48 35.33-77.33c42-15.33 79.34-31.33 79.34-31.33s20.58-8.67 51.58-34.42c17.75-15 38.5-29 41.25-31s15-11.75 21.25-17.75 77.25-78.25 77.25-78.25 28-25.75 35.75-32.25 40.75-37 50.75-65.5c7.75-14.5 29.5-62.5 29.5-62.75s5.5-15 5.5-30 0.75-60.25 0.75-60.25 0.75-23.25 28.5-38.5c16.75-15 23.5-24 23.5-24s9.25-14.25-4.5-30c-4.75-5.5-6.75-10.25-6.75-10.25s-12.5-23.5 21.5-47c23.75-20.75 50.5-40.25 50.5-40.25s19-15.5 34.25-31.5 143.42-151 143.42-151 39.33-33.33 14-118c-5.34-18.67-7.17-31-7.17-31s-0.75-24.25-30.75-26.25c-21-0.25-29.25 0-29.25 0s-15.75-1-28-10.25c-6.25-3.5-54.5-38.25-54.5-38.25s-19.25-15.25-11.75-36.75c7.5-12 16.75-16.25 24.5-20.5s44.75-23.75 44.75-23.75 32-19.5 46.75-35.25 15-19.75 15.75-33.25c0.75-8.75 1.25-12.25 1.25-12.25s2.75-17 15-33.75c5-6.25 19.25-30.25 19.25-30.25s46.5-61.75 111-17.75c22.25 12.75 77.75 51.25 77.75 51.25s23.5 18.5 24.5 32.75 30.25 28.75 38.75 2.25 64-25.25 64-25.25l77-6.75s26.25-0.75 40.25 3.25 61.25 13.5 61.25 13.5 22.5 9.75 36.5-17c7.5-11.25 11.75-19 11.75-19s9.25-16.75 8.75-30.25 0.5-38.25 0.5-38.25-3-18.75 33.5-30.75c13.25-7.25 113.25-45.75 192.75-57.75 25.25-4 74-12 101.75-32.5s57.5-44 86.5-59c5.75-2.5 49.75-16.75 53.5 42.5 0 18.75-5.17 144.25 1.83 182.58 2.67 14 11.67 113.67 141 166.67 22.34 8.33 86.34 34 86.34 34s9.66 5 95.33 1.67c11.67 0 110.33-0.34 248 36.66 7.67 3.34 60 21 74 37.67 14.67 13.33 36.33 31.33 109.67 64.67 13.33 4.66 61 23.66 124.33-23.67 53.67-35.33 65.67-47 65.67-47s24-18.33 39-31.67c15-13.33 25.66-21.33 72-26 17.33-3 53.66-9.66 53.66-9.66s19-1.34 31-5c12-4 44.34-18.67 57.34 6.66 13 25.34-6.67 42.34-6.67 42.34s-90 75-137.67 106.66c-21.66 6-4 67.67 27.67 19.34 6-11.67 17.67-27.34 28-36.34s18-16 43.33-24.66c25.34-8.67 86.67-27.34 86.67-27.34s27-5.66 45.67-6c30-7.66 57.66-30.33 84.33-61 26.67-30.66 32.33-56.66 29.67-67.66-2.67-11-6.34-37.67 6.66-55.34 5.67-9.33 34.67-46 34.67-46s14-22.33 57.33-0.33c23 9.67 47 19.33 86.34 27.33 20 7.67 40.66 7.34 71 48 30.33 40.67 66.66 37.34 66.66 37.34s24.34-1.67 32.34 12.33c11 11.67 55.66 63 55.66 63s20 18.67 5.67 51-28 72-28 72-12 37.33 19 58.67c31 21.33 37.33 17.66 37.33 17.66s44.67-4.66 49.67 32.67c1 12.67 8.67 67.33 7.67 84.67-1 17.33-6 35.33-45 34.66-39-0.66-103-4.66-103-4.66s-24-2.34-34.34 26c-10.33 28.33-2.33 10.66-16.33 35.66-14.67 18-32 42-32 42s-28.67 38.67-27.33 75.34c1.33 36.66 3.33 139 3.33 139s0.67 19.33-8 30.33-24.33 25.33-24.33 25.33-16.67 11.67-30.34 13.67c-13.66 2-39.33 6.67-54 20.67-14.66 14-30.33 25.33-54.66 54-24.34 28.66-30.34 51-30.34 51s-31.66 60.33-31.66 60.33-8.67 20.33-45.67 36c-8 5-35.67 19-46.33 34.67-9 5-25 18.33-73 26-39.34 5.33-93 28-93 28l-33.34 13s-47.66 20.66-81.33-1.34c-24-18.66-49-39.66-49-39.66s-21.33-15.34-42.67-3c-21.33 12.33-85.66 57-85.66 57s-24.34 15.66 2.33 44.33 46 46 124 66c44 9 57.67 31.33 69.67 58 6.66 12.33 9 21.33 9 21.33s25.66 80.67-29.34 113.67-214.33 124.33-214.33 124.33l-847.5 522.67s-73 46-99.75 84.5c-27.75 32.5-85.75 103.75-85.75 103.75s-20 24-26.25 38.25-12.75 36-26.25 50.5-54.5 55-54.5 55-6.5 5.25-16.25 23.75c-5.25 12-10.5 21.75-10.5 21.75s-2.5 12.5-24.5 11.25c-13.75-0.25-20-0.5-20-0.5s-10-1.75-22.75 7.5-39.25 29-39.25 29-17 14.75-31.75 29.25c-14.5 13.5-108.67 109.83-108.67 109.83z" fill="none" stroke="#00f" stroke-width="30"/>
</svg>
