<svg width="3.6in" height="1.95in" version="1.1" viewBox="0 0 1080 585" xmlns="http://www.w3.org/2000/svg">
	<path id="Track" d="m1041.2 513.45c17.374 41.955-41.431 57.861-63.665 26.554-90.051-63.275-179.88-126.86-270.8-188.85-42.921-31.254-123.66-90.565-117.28-107.68 20.27-33.06 72.612 16.928 102.55 4.3194 42.869-27.248 7.5158-86.097-13.52-117.03-38.521-30.122-31.575 32.216-37.186 50.696-16.022 16.025-48.037 6.9281-72.062 8.9387-40.998 0.8862-81.895-0.4522-122.37-7.4645-29.299-2.1291-58.806-12.913-87.875-7.2607-34.237 13.963-24.958 58.809-45.469 82.972-25.589 17.393-42.763-14.394-56.572-31.559-47.546-68.129-117.26-119.3-195.66-146.3-54.819-10.647-9.1759-80.099 24.59-38.597 45.131 31.031 87.945 66.182 135.61 92.956 36.101 10.605 64.034-26.322 100.38-19.723 74.818 10.317 149.59 21.416 224.44 31.318 27.857-4.3864 25.318-39.107 33.329-60.307 1.3577-34.228 29.827-74.626 66.823-50.724 60.303 36.579 123.35 68.799 182.26 107.53 30.476 29.129 39.594 72.56 58.753 109.09 21.418 45.964 41.344 92.699 63.735 138.15 38.4-5.96 55.21 41.303 70.181 72.924 7.2236 16.424 13.983 33.069 19.817 50.041z" fill="none" stroke="#00f" stroke-width="19.5"/>
</svg>
