<svg width="2.7in" height="1.75in" version="1.1" viewBox="0 0 809.99 525" xmlns="http://www.w3.org/2000/svg"><path id="Selection" d="m97.424 25.475c106.09-5.2564 207.09 37.819 312.7 40.41 30.752 2.4005 61.952 0.89578 92.323 5.9265 23.156 17.891-6.3063 46.159-20.351 60.479-30.104 27.885-73.457 35.112-112.44 26.058-29.13-3.8897-58.134-9.6925-87.371-12.196-34.779 1.0844-58.782 45.368-36.992 74.056 16.95 27.002 29.719 56.965 50.091 81.571 26.401 27.446 65.642 5.1215 81.039-22.726 23.797-28.143 61.424-37.035 96.789-36 52.473-0.41142 104.89-2.585 157.35-3.4202 29.591-0.59324 59.188-1.2171 88.777-1.4501 30.342-1.0653 40.659 32.066 46.163 55.994 4.6287 21.889 14.063 42.804 16.518 65.056-16.851 27.686-53.708 35.861-82.72 46.34-115.39 31.047-230.66 62.568-345.86 94.326-29.726-2.2551-35.213-49.063-57.971-67.115-45.469-57.487-83.175-120.74-111.9-188.15-19.065-46.284-44.34-90.633-81.524-124.84-24.375-25.344-50.562-49.086-73.94-75.292-4.5836-18.805 24.671-13.222 36.672-16.296 10.873-1.1019 21.73-2.2882 32.64-2.7289z" fill="none" stroke="#00f" stroke-width="12"/></svg>
