<svg width="3.45in" height="1.8in" version="1.1" viewBox="0 0 1035 540" xmlns="http://www.w3.org/2000/svg">
	<path id="Track" d="m1005 209.55c6.1145 44.75-29.559 78.213-49.6 114.53-35.384 53.153-65.571 110.15-106.83 159.06-25.424 37.617-74.518 23.645-105.21 1.7874-31.212-22.242-51.612-60.639-91.745-69.156-45.455 0.70789-33.546-58.833-69.406-74.416-31.857-19.433-73.763-16.031-103.3-39.359-20.005-35.605-45.004-66.519-74.236-95.385-4.0918-33.041-33.019-42.494-61.601-39.933-70.614-5.2999-141.56-9.2099-212.35-4.3274-24.697 0.3795-50.075 6.4154-74.282 0.10563-30.714-16.628-23.685-55.82-27-85.43-2.0326-26.464 30.063-16.274 46.595-15.1 48.657 6.7113 96.952 19.179 146.46 13.567 84.909-7.3218 169.13-21.305 253.71-31.702 61.501-9.7741 124.94-17.218 186.02 0.0808 57.917 15.393 115.23 33.16 173.2 48.31 21.045-15.944 43.374-42.381 71.224-16.398 31.434 12.48 61.933 30.775 70.996 65.765 10.569 21.988 22.408 43.89 27.351 67.997z" fill="none" stroke="#00f" stroke-width="22.5"/>
</svg>
