<svg width="4.9in" height="5.4in" version="1.1" viewBox="0 0 1470 1620" xmlns="http://www.w3.org/2000/svg">
	<path id="Unnamed" d="m696.65 287.62s35.67-31.34 33.34-67l2-165.67s0-18 23-15.33l637.33 14.66s33.33-2.66 16.67 28.34l-79.34 93.33s-23 23.67-2.33 49.67c0 0 17.33 17.66 55.33 47.33 0 0 49.67 38.67 49.67 75.33 0 0 2.33 19.34-5.33 42.34 0 0-9.34 27-30.67 49.33 0 0-15.67 26.33-48.33-0.33l-253.34-188s-24.33-19.67-44.66 6.66c0 0-64.67 84.67-64.67 84.67s-14.67 20.67 10 40.33l73 51.67s47.33 35.33 47 85.67c0 0-0.67 81-0.67 81s-4.33 33.66 32 36c0 0 103.67 0.33 175 104 0 0 15.67 18.33 12.34 40.33 0 0-2.34 26.67-2.34 26.67s-7 21.66 5.67 39c0 0 12 18.66 31 36.33 0 0 24.67 23.33-0.33 48l-338.17 370.5s-26.86 26.05 0.23 48.23l103.82 83.27s30.9 24.91 41.09 44.91c0 0 13.09 19.82 12.18 38 0 0 1.63 60.36-72 63.64 0 0-131.07 0.7-234.82-1.55l-537-13-262.5-2.5s-77-1.5-26-56c0 0 22-15 31-19 0 0 30-9.5 50-39 0 0 22-26.5 26.5-69 0 0 3.5-25-1.25-45 0 0-22.25-60.75-22.25-60.75s-12.75-41.5 20.75-73c0 0 31.75-32.25 46.75-57.25 0 0 25.75-50.75 37-105.5 0 0 5-14 4.5-23 0 0 4.5-45-54.25-66.75l-22.5-8.5s-19-5.75-30-28c0 0-34-69.75-33.5-139.75l0.75-13.75s1.25-78 75.5-61.75l110.75 34.75s68.75 26.25 83.5-18.25c0 0 13.5-27.5 34.5-53.5 0 0 262.75-345.17 262.75-345.17l21.33-27.66z" fill="none" stroke="#00f" stroke-width="19.5"/>
</svg>
