<svg width="32mm" height="74mm" version="1.1" viewBox="0 0 377.6 873.19" xmlns="http://www.w3.org/2000/svg"><path id="Selection" d="m233.02 36.944c-28.813 5.338-52.148 25.066-76.641 39.887-25.333 21.875-68.508 34.815-74.355 71.281 3.6655 25.579 14.478 50.766 8.6073 77.025-17.144 135.03-37.65 269.65-54.756 404.7-8.6684 55.62-3.8739 111.93-0.48349 167.78 3.846 15.084-5.47 40.242 15.388 43.882 26.739-2.6 48.873-24.289 76.598-22.89 32.723 9.7045 72.112 15.598 101.12-7.1905 35.053-30.309 43.022-78.423 59.331-119.73 11.233-20.882 17.234-62.982-18.436-59.978-29.578 6.506-57.151 19.986-85.753 29.865-25.173 13.123-68.48 16.516-74.501-20.059-0.942-27.696 28.955-39.308 46.779-55.517 25.853-22.74 63.512-38.72 70.385-75.753 7.2462-47.61 17.157-95.446 16.301-143.78-10.25-38.763-27.058-75.564-40.497-113.37-3.9511-17.627-25.417-40.739-6.0324-54.539 45.319-9.653 91.337-16.353 136.95-24.689 19.299-1.325 11.342-23.399 12.994-36.231 4.042-19.682-11.522-33.159-24.283-45.761-25.094-24.181-46.759-63.779-88.717-54.931z" fill="none" stroke="#00f" stroke-width="17.7"/></svg>
