<svg width="2.7in" height="3.45in" version="1.1" viewBox="0 0 810 1035" xmlns="http://www.w3.org/2000/svg">
	<path id="Track" d="m628.59 35.57-0.0139 0.0094c-14.797 7.845-24.714 22.214-38.443 31.594-32.226 14.622-69.1 16.131-102.16 29.13-38.924 23.082-82.888 11.437-124.27 5.3312-43.467 2.954-69.115-41.787-110.12-45.695-57.43 16.06-114.26 35.212-172.4 49.103-18.2 8.675-63.906 3.027-52.649 32.401 41.379 45.216 84.927 88.762 124.05 136.13 22.414 30.65 61.548 55.094 58.996 97.352-14.778 135.71-39.92 270.03-54.813 405.72-10.925 65.2-6.6161 131.33-1.3311 196.83 0.68 55.07 55.62 5.7131 83.891 5.2244 36.496 7.926 77.671 18.013 111.05-6.316 50.19-35.391 101.99-68.671 151.42-105.15 42.124-23.501-14.286-73.912 18.79-97.906 49.66-14.145 100.68-23.525 150.62-36.811 33.931-10.951 72.201-15.421 101.79-36.15 33.246-44.641-25.503-85.121-44.728-122.12-28.5-35.186-26.755-81.041-25.333-123.51-1.133-66.15 22.793-130.38 19.654-196.36-6.277-58.73-35.437-111.86-55.538-166.78-10.968-18.079-10.82-55.743-38.462-52.027z" fill="none" stroke="#00f" stroke-width="22.5"/>
</svg>
