<svg width="1150" height="1150" version="1.1" viewBox="0 0 3593.7 3593.8" xmlns="http://www.w3.org/2000/svg">
	<path id="Unnamed" d="m905.23 1845.4s384.97 60.461 485.56 69.657c101.39 16.701 45.787 11.246 213.92 13.241 168.13 1.9952 301.47 95.927 301.47 95.927s29.303 16.798 41.321 31.644c12.018 14.846 125.76 111.82 193.82 269.63 48.506 196.9 130.61 335.19 204.87 408.86 92.185 72.706 199.49 260.49 199.49 260.49s110.14 205.5 158.02 307.6c47.884 102.1 199.67 217.78 300.83 98.841 101.16-118.94 220.06-9.2336 200.74-21.404-19.323-12.17-0.2001-1.876 63.444 70.078 171.9 90.769 198.72-84.751 176.64-131.73-8.8286-29.416-49.847-129.4-49.847-129.4s-116.75-312-183.92-434.81c-62.979-128-237.75-183.36-348.69-254.06-110.95-70.705-260.78-203.67-260.78-203.67s-160.62-145.1-403.65-404.74c-245.8-294.45-207.89-339.28-278.71-531.9-70.818-192.62-356.96-269.31-356.96-269.31s-245.31-76.301-470.05-137.72c-224.74-61.417-282.27-245.02-287.59-455.06-5.3196-210.04-132.84-302.69-147.81-309.64-14.97-6.9418-134.43-130.81-360.09-31.807-300.48 198.06-86.131 535.7-26.363 589.09 59.768 53.394 242.03 392.56 124.34 667.89-117.69 275.33 90.124 302.51 104.66 314.24 14.532 11.732 405.34 118.06 405.34 118.06z" fill="none" stroke="#00f" stroke-width="80.044"/>
</svg>
