<svg width="2.7in" height="3.45in" version="1.1" viewBox="0 0 810 1035" xmlns="http://www.w3.org/2000/svg"><path id="Track" d="m628.59 35.57c27.642-3.7161 27.494 33.948 38.462 52.027 20.101 54.915 49.261 108.05 55.538 166.78 3.1392 65.981-20.787 130.21-19.654 196.36-1.4224 42.469-3.1665 88.324 25.333 123.51 19.225 36.999 77.974 77.479 44.728 122.12-29.589 20.729-67.859 25.199-101.79 36.15-49.943 13.286-100.96 22.666-150.62 36.811-33.076 23.994 23.334 74.405-18.79 97.906-49.427 36.479-101.23 69.759-151.42 105.15-33.379 24.329-74.554 14.242-111.05 6.316-28.271 0.4887-83.211 49.846-83.891-5.2244-5.285-65.504-9.5936-131.63 1.3311-196.83 14.893-135.69 40.035-270.01 54.813-405.72 2.552-42.258-36.582-66.702-58.996-97.352-39.123-47.368-82.671-90.914-124.05-136.13-11.257-29.374 34.449-23.726 52.649-32.401 58.138-13.891 114.97-33.043 172.4-49.103 41.005 3.9084 66.653 48.649 110.12 45.695 41.382 6.1058 85.346 17.751 124.27-5.3312 33.06-12.999 69.934-14.508 102.16-29.13 13.729-9.3802 23.646-23.749 38.443-31.594z" fill="none" stroke="#00f" stroke-width="22.5"/></svg>
