<svg width="4.2in" height="2.35in" version="1.1" viewBox="0 0 1260 705" xmlns="http://www.w3.org/2000/svg"><path id="Track" d="m461.07 313.85 0.0158 5e-3c14.153 4.9724 28.307 9.9452 42.46 14.918 35.771 17.996 78.192 11.503 111.51-9.4982 39.236-28.088 72.749-63.745 109.58-95.014 22.029-37.201 49.67 7.098 73.694-12.209 41.591-39.386 104.34-12.817 137.22 24.414 78.09 92.91 153.32 188.29 230.29 282.18 19.457 28.516 52.536 51.531 55.441 87.979-7.32 22.617-9.628 56.608-39.586 59.577-33.383 2.434-43.486-31.882-60.412-53.076-17.081-20.022-25.464-50.963-52.283-59.259-33.198 4.086-66.826-14.105-70.658-49.237-5.843-27.165-18.719-57.524-51.769-57.395-46.776 8.099-94.938-35.667-68.441-82.312 38.839-55.389-24.812-101.59-76.771-101.89-52.321-7.365-98.17 25.758-127.63 65.96-19.687 18.468-31.956 48.713-59.984 54.687-27.887 0.2182-58.202 12.848-84.062-0.0625-8.9342-23.213-10.613-49.347-16.574-73.776-5.9855-45.777-28.179-93.136-10.704-138.62 7.119-15.267 30.59-62.024-2.7368-51.776-28.681 32.164-39.435 69.775-78.538 92.886-84.42 19.444-146-1.848-215.56-53.485-20.261-29.532-41.201-53.282-57.566-85.222-11.125-46.179-79.134-43.559-103.82-12.074-20.852 46.492 37.867 75.225 65.794 102.25 106.07 71.941 229.87 111.68 351.09 150.05z" fill="none" stroke="#00f" stroke-width="16.5"/></svg>
