<svg width="1.5in" height="1.75in" version="1.1" viewBox="0 0 450 525" xmlns="http://www.w3.org/2000/svg">
	<path id="Unnamed" d="m412.23 403.13c14.191 18.334 14.044 43.16 4.6469 63.512-4.1657 21.52-27.56 40.704-49.427 30.148-21.332-11.602-30.288-35.606-44.263-54.256-10.936-15.512-19.92-32.572-32.316-46.927-14.374-15.703-36.09-10.472-54.662-12.912-24.441-5.7056-33.69-30.92-38.021-52.862-3.8938-20.649-12.966-43.245-35.081-49.923-20.375-6.5626-43.626 3.1811-62.272-10.255-23.787-10.947-34.504-40.368-24.105-64.275 7.0538-21.223 20.922-43.746 9.9121-66.332-7.078-19.319-27.354-25.961-43.361-35.614-13.004-14.755-21.536-37.948-13.551-56.935 10.099-22.864 39.248-26.511 59-14.37 30.274 13.705 52.148 38.981 72.124 64.585 83.792 102.14 167.58 204.28 251.38 306.41z" fill="none" stroke="#00f" stroke-width="9"/>
</svg>
