<svg width="650" height="180" version="1.1" viewBox="0 0 2031.2 562.5" xmlns="http://www.w3.org/2000/svg">
	<path id="Unnamed" d="m923.73 164.66s-126.33 10-192.33 10-435-0.66-435-0.66-57.34-2-130.67 13.33c-76 12.67-110.67 18.67-110.67 18.67s-18.83 5.83-18.33-14.67 19-17.5 40.5-12.5c15.75 5.5 20 6.75 20 6.75s10.25 4 33.5-1 73.5-12.5 73.5-12.5 29.75-4.5 51-4.75 27.5-0.5 27.5-0.5 21.5-1 35.5-3.75 32.5-2.25 32.5-2.25l161.5 0.25s47.5-5.5 75 47.75c8.75 17.25 22 46.75 27.75 54.75 18.25 25.25 21.5 27.25 80.75 37.75s94.5 16.75 118.5 23.5 30.75 7.5 30.75 7.5c13.5 2.75 48.25 3.5 73 38.25s79.08 116.75 79.08 116.75 21 27.33 51.34 29.67c25.66 4.33 54.33 9 54.33 9s46.67 7 80.33-5c29.67-9.67 92.34-30.67 92.34-30.67s32.66-12.67 42.33-37.67 40.33-35.66 70-42.33c25.67-8 115.33-31.67 144-105 10.67-23 49.33-125.33 144-135.67 20.33-3.33 126.67-14 126.67-14s31.66 0.34 50.33-8.66 43.33-8 43.33-8l48.34-4s53.33 4.33 50-54.67c-1-21 4.66-52.33-62-45-20 3.33-38.34 4.67-57.67 5s-50.33-3.67-94.33 0.67c-44 4.33-150 12.66-202 25-52 12.33-286 61.33-325.34 66-39.33 4.66-85.33 13.33-312.66 31.33-7 0.67-16.67 1.33-16.67 1.33z" fill="none" stroke="#00f" stroke-width="27"/>
</svg>
