<svg width="2.9in" height="2.9in" version="1.1" viewBox="0 0 870 870" xmlns="http://www.w3.org/2000/svg">
	<path id="Track" d="m380.55 830.67s-51.41-2.76-85.79-13.39l-32.12-10.87s-36.12-14.26-66.38-17c0 0-38.37-5-38.37-5s-64.75-0.76-82-44.38c0 0-43-94.5-43-94.5s-6.25-13.75-7.5-36.5c0 0 1.34-20 5.89-35.27 0 0 6-27.64 16.18-41.82 0 0 8.36-16.18 22.91-31.27l41.63-37.46s26.91-22.54 39.09-52l18.55-37.93s17-38 36.5-73.5c0 0 32-60 63.5-133.25 0 0 19-49 26.5-66 0 0 9.25-17 18-28 0 0 23.5-33.25 86.5-34l141-9.75s64-1.25 79.75 2.75l118 16.25s43 6.25 59.25 30c0 0 15 18 20.5 33.75l20 52.5s20.5 42-15.5 82.25l-11 11.5s-15.75 20-21.25 40.5-6.25 28.75-15.63 40l-25.62 30s-10.38 10.75-27.62 18.87l-47.26 22.88s-32 14.62-45.87 34l-100.42 156s-8.78 15-9.88 26.45l0.37 11.28s-0.91 7.82 7.45 23.27l18 33.82s8.18 14.73 8.18 29.45l0.19 46.55s1.63 61.27-53.82 70.54l-32.55-0.54s-35.82-2.55-68.18-8l-18.18-2.18z" fill="none" stroke="#00f" stroke-width="15"/>
</svg>
