<svg width="4.05in" height="1.75in" version="1.1" viewBox="0 0 1215 525" xmlns="http://www.w3.org/2000/svg"><path id="Selection" d="m58.086 33.165c-56.822 20.507-17.411 76.578 24.965 82.948 33.048 18.587 86.896 8.6965 101.56 52.071 7.7725 38.144 86.425 44.234 53.812 89.715-23.438 15.461-49.832 26.493-74.467 40.216-21.763 13.484-61.991 21.226-53.777 54.611 15.028 19.879 42.513 23.252 63.889 34.162 53.792 17.145 100.27 49.129 147.94 78.296 18.812 8.8069 35.24 28.364 56.871 26.606 15.138-15.346-6.101-55.19 23.004-58.204 123.23 9.134 246.5 18.373 369.74 27.599 71.752 4.3278 143.17 13.111 215.01 14.541 42.964 6.0194 55.733-51.291 95.825-56.763 30.8-13.948 75.4-16.595 86.756-53.963 6.0405-48.738 22.915-98.648 12.621-147.78-18.934-49.46-72.647-13.38-83.41 22.088-22.457 25.814-25.016 72.109-56.347 86.567-31.428-11.705-55.124-38.226-86.579-50.012-47.854 8.862-76.759-34.968-58.652-77.818 7.0105-31.603 34.004-78.332-4.8343-99.56-36.936-6.5688-75.177-6.1109-112.63-9.8716-157.54-12.778-314.86-28.202-472.53-39.465-82.946-4.7825-165.84-13.068-248.78-15.984z" fill="none" stroke="#00f" stroke-width="12"/></svg>
