<svg width="3.62in" height="1.588in" version="1.1" viewBox="0 0 1086 476.4" xmlns="http://www.w3.org/2000/svg">
	<path id="Unnamed" d="m414.37 452.63-370.05-24.5s-24.9-2.18-22.9-28.36c2-26.19 28.36-142.91 28.36-142.91s13.64-70 114-77.64c42.18 0.91 77.45-40.18 77.45-40.18s27.28-33.09 39.82-45.46c20.37-21.09 64.18-47.63 108.18-52.54 44.19-1.82 336.31-12.91 336.31-12.91s4.24-0.64 8.51 2.82c4.27 3.45 18 14.36 18 14.36s1.27 1.55 6.27 1.55 40.64-0.46 40.64-0.46 6.09 0.18 10.36-5.82c5.28-5.36 19.37-17.54 31.82-17.54 12.46 0 50.98-0.53 55.11-0.53 11.62 0.62 51.74 14 57.74 64.62 0 4.75-0.24 13.38-0.24 13.38s1.74 18.24-19.26 40.74c-22.62 20.88-117.62 97.38-122.62 101.55-16.75 12.58-32.25 66.08 24 78.58 25.25 0 179-8.25 186-8.75 34.75-3.5 77 56.25-2.25 79-24.75 2.75-311.75 27.32-316.48 27.41-13.63-1.09-35.27-17.64-22.72-49.09 4.18-10 50.27-105.64 53.54-112.73 4.91-11.82 0.91-56.18-46.18-48.18-15.64 3.82-160.03 37.47-160.03 37.47s-34 8.62-37 46.37-8.55 124.92-8.55 124.92-0.21 31.58-42.71 36.08c-12.37-0.5-25.12-1.25-25.12-1.25z" fill="none" stroke="#00f" stroke-width="15"/>
</svg>
