<svg width="3.3237in" height="1.6562in" version="1.1" viewBox="0 0 997.11 496.85" xmlns="http://www.w3.org/2000/svg">
	<path id="Track" d="m32.048 417.51c-0.0629-42.917 14.757-84.256 21.641-126.44 4.1755-44.098 33.951-85.255 78.213-95.703 36.276-9.7211 78.149-7.1921 106.75-35.918 32.311-31.293 56.123-73.397 99.736-91.144 47.106-24.831 101.32-19.917 152.71-23.311 77.667-2.4902 155.22-6.1967 232.89-8.4857 24.262-3.805 36.2 17.154 62.942 18.95 32.087 2.2899 45.295-28.014 75.221-24.829 33.424-3.6342 73.03 0.66777 91.341 32.879 26.451 40.041 0.034 98.565-45.904 108.75-122.8 27.966-246.09 53.98-368.71 82.683-32.247 7.7073-40.975 41.845-40.385 70.624-2.6913 36.641-1.6764 73.789-8.3906 109.94-14.165 32.214-52.019 27.238-80.736 25.487-97.592-6.1249-195.24-12.104-292.78-19.447-23.977-2.5329-48.398-2.5518-72-7.11-6.7377-3.081-12.538-16.925-12.538-16.925z" fill="none" stroke="#00f" stroke-width="24"/>
</svg>
