<svg width=".79in" height=".7in" version="1.1" viewBox="0 0 237 210" xmlns="http://www.w3.org/2000/svg">
	<path id="Track" d="m209.13 118.91s-2 13.82-4.91 20.18c0 0-15.64 60.18-66.37 59.82h-11.81s-51.82-4.73-53.64-21.27l-57.64-116.73s-2.74-6.16-2.48-11.53c0 0 0.5-14 9.62-14 0 0 6.12-1.88 13.62 11.5l22.63 40.87s10.63 17.37 26.87 24.37l45.38 19.38s2 1.62 6.75 1.5l9.75 0.12s12.38 0 18.62-13.5l-0.12-6.37s0.38-4.13-11.88-11.5l-46.24-23.75s-14.5-7.25-15-19.12c0 0 0.87-12.13 12.24-12.76 0 0 3.13-1.37 12.38 5.13 0 0 31.88 26.25 49.62 25.25 0 0 13.13 2.5 16-13.12 0 0 1.5-3.38-6-12.88l-21.24-20.38s-3-3.37-2.5-8.62c0 0 0.5-9.62 9.37-10.38 0 0 4.37-1 10.63 4.76l7 6.24s4.5 5.38 26.12 10.88c0 0 18.75 3.75 18.75 31.62 0 0 2.13 15.38-11.37 30.5 0 0-4.13 3.63-4.38 8.76z" fill="none" stroke="#00f" stroke-width="4.2"/>
</svg>
